<svg xmlns="http://www.w3.org/2000/svg" viewBox="0 0 40.75 45.19"><defs><style>.cls-1{fill:#1f1613;}.cls-2{fill:#fff;}</style></defs><title>btn_registermember_on</title><g id="Layer_2" data-name="Layer 2"><g id="Layer_1-2" data-name="Layer 1"><path class="cls-1" d="M16.27,21.65c6,0,8.18-6,8.75-11C25.72,4.59,22.84,0,16.27,0S6.83,4.59,7.53,10.68C8.1,15.63,10.26,21.65,16.27,21.65Z"/><path class="cls-1" d="M29.43,24.16l.58,0a4.63,4.63,0,0,0-1-1.06,16.44,16.44,0,0,0-4-1.67,16,16,0,0,1-1.76-.79,9.15,9.15,0,0,1-7,3.06,9.14,9.14,0,0,1-7-3.06,16,16,0,0,1-1.76.79,16.44,16.44,0,0,0-4,1.67C1.55,24.61,1,28,.63,30.26A41,41,0,0,0,0,36c0,1.48.69,1.69,1.93,2.14a36.13,36.13,0,0,0,4.79,1.32,48,48,0,0,0,9.55,1.19,38.45,38.45,0,0,0,4.67-.34,10.21,10.21,0,0,1-1.82-5.84A10.32,10.32,0,0,1,29.43,24.16Z"/><path class="cls-1" d="M40.7,34.61c0-.11,0-.21,0-.32s0-.36-.08-.54l-.09-.41c0-.14-.07-.27-.1-.41l-.14-.47-.09-.24a9.79,9.79,0,0,0-3.75-4.77c-.2-.13-.41-.26-.63-.38l-.33-.17L35,26.7l-.34-.15-.55-.2-.23-.08a7,7,0,0,0-.79-.2L32.85,26l-.62-.09-.27,0a8.7,8.7,0,0,0-.89,0,9.67,9.67,0,0,0-9.67,9.67,8.69,8.69,0,0,0,.05.89,2.85,2.85,0,0,0,0,.29,5.4,5.4,0,0,0,.09.58l.06.33c0,.18.09.35.14.53l.09.32c.08.25.17.48.26.72s.13.29.2.44.09.19.14.29.16.31.25.45.09.16.14.23A9.74,9.74,0,0,0,26,43.75l.15.09c.17.1.34.2.52.29l.19.09q.45.21.93.39l.3.11.39.11c.15,0,.31.09.47.12l.36.07a5,5,0,0,0,.56.09l.3,0c.29,0,.59,0,.89,0a9.67,9.67,0,0,0,9.68-9.67A9.08,9.08,0,0,0,40.7,34.61Zm-4.53,2.12H32.29v3.89a1.22,1.22,0,0,1-2.43,0V36.73H26a1.22,1.22,0,0,1,0-2.43h3.89V30.42a1.22,1.22,0,1,1,2.43,0V34.3h3.88a1.22,1.22,0,1,1,0,2.43Z"/><path class="cls-2" d="M36.17,34.3H32.29V30.42a1.22,1.22,0,1,0-2.43,0V34.3H26a1.22,1.22,0,0,0,0,2.43h3.89v3.89a1.22,1.22,0,0,0,2.43,0V36.73h3.88a1.22,1.22,0,1,0,0-2.43Z"/></g></g></svg>