<svg xmlns="http://www.w3.org/2000/svg" viewBox="0 0 45.93 45.73"><defs><style>.cls-1{fill:#a6b0c7;}.cls-2{fill:#fff;}</style></defs><title>btn_addmember</title><g id="Layer_2" data-name="Layer 2"><g id="Layer_1-2" data-name="Layer 1"><path class="cls-1" d="M45.88,34.84c0-.11,0-.22,0-.33s-.05-.38-.08-.56l-.09-.42c0-.14-.07-.28-.11-.42s-.09-.33-.14-.48-.07-.17-.1-.26a10,10,0,0,0-3.85-4.9c-.21-.14-.43-.27-.65-.4l-.34-.17a4.39,4.39,0,0,0-.44-.21l-.34-.15a5.71,5.71,0,0,0-.58-.21l-.23-.08c-.26-.08-.54-.15-.81-.21L37.79,26c-.21,0-.42-.07-.63-.09l-.28,0a9.08,9.08,0,0,0-.91-.05,10,10,0,0,0-10,10c0,.31,0,.62,0,.92,0,.1,0,.2,0,.3s.05.4.09.6,0,.23.07.34.09.36.14.54l.09.34c.08.25.17.49.27.73s.13.3.2.45l.15.31.26.46c0,.08.09.16.14.24a10.09,10.09,0,0,0,3.25,3.25l.15.09a5.86,5.86,0,0,0,.55.3l.19.09c.31.15.63.29,1,.41l.32.11.4.11.48.13.37.07a5.4,5.4,0,0,0,.58.09l.31,0c.3,0,.61,0,.92,0a10,10,0,0,0,10-10C45.93,35.46,45.91,35.15,45.88,34.84Z"/><path class="cls-1" d="M27.87,27.15c.05,0,.1-.12.16-.17a15.42,15.42,0,0,0,.81-1.91,2.77,2.77,0,0,0,1.58-2.5V19.88a2.76,2.76,0,0,0-.67-1.79V14.55a6.1,6.1,0,0,0-1.43-4.45c-1.4-1.6-3.66-2.41-6.73-2.41s-5.33.81-6.72,2.41a6.1,6.1,0,0,0-1.43,4.45v3.54a2.77,2.77,0,0,0-.68,1.79v2.69a2.75,2.75,0,0,0,1,2.14,14.32,14.32,0,0,0,2.35,4.85v2.19a1.71,1.71,0,0,1-.88,1.49l-6,3.27a2.68,2.68,0,0,0-.28.18A19.62,19.62,0,1,1,42.26,22.63,19.25,19.25,0,0,1,42,25.38a11.92,11.92,0,0,1,2.69,2.09A22.64,22.64,0,1,0,28.08,44.59a11.92,11.92,0,0,1-.21-17.44Z"/><path class="cls-2" d="M37.22,30.52a1.25,1.25,0,1,0-2.5,0v4h-4a1.25,1.25,0,0,0,0,2.5h4v4a1.25,1.25,0,1,0,2.5,0V37h4a1.25,1.25,0,0,0,0-2.5h-4Z"/></g></g></svg>