<svg xmlns="http://www.w3.org/2000/svg" viewBox="0 0 38.97 44"><defs><style>.cls-1{fill:#1f1613;}</style></defs><title>btn_excelupload_on</title><g id="Layer_2" data-name="Layer 2"><g id="Layer_1-2" data-name="Layer 1"><path class="cls-1" d="M36.5,15.74H35.44v-5.2a.86.86,0,0,0-.21-.55L26.75.3h0a1.22,1.22,0,0,0-.17-.15l-.06,0L26.34,0l0,0-.2,0H5.25A1.73,1.73,0,0,0,3.52,1.73v14h-1A2.46,2.46,0,0,0,0,18.2V31A2.47,2.47,0,0,0,2.47,33.5h1v8.77A1.73,1.73,0,0,0,5.25,44H33.72a1.72,1.72,0,0,0,1.72-1.73V33.5H36.5A2.48,2.48,0,0,0,39,31V18.2A2.47,2.47,0,0,0,36.5,15.74ZM6.25,2.73h19v7.82a.87.87,0,0,0,.87.87h6.62v4.32H6.25ZM22.73,25.25c-1.7-.59-2.8-1.53-2.8-3,0-1.74,1.45-3.07,3.86-3.07a6.26,6.26,0,0,1,2.6.51l-.51,1.86a5,5,0,0,0-2.14-.48c-1,0-1.48.45-1.48,1s.57.94,1.89,1.44c1.8.67,2.65,1.6,2.65,3,0,1.71-1.32,3.17-4.12,3.17a6.83,6.83,0,0,1-2.89-.62l.47-1.91a5.84,5.84,0,0,0,2.56.64c1.06,0,1.62-.44,1.62-1.11S24,25.69,22.73,25.25ZM18.82,27.6v1.94H12.45V19.33h2.32V27.6ZM5.05,29.54H2.41l3-5.17-2.84-5H5.17l.89,1.86c.3.62.53,1.12.77,1.7h0c.24-.65.44-1.11.7-1.7l.86-1.86h2.64l-2.88,5,3,5.23H8.54l-.92-1.85C7.24,27,7,26.45,6.71,25.86h0c-.21.59-.47,1.12-.79,1.83Zm1.2,11.27V33.5H32.72v7.31ZM33.73,29.54l-.92-1.85c-.38-.71-.62-1.24-.91-1.83h0c-.21.59-.47,1.12-.79,1.83l-.84,1.85H27.6l2.95-5.17-2.84-5h2.65l.89,1.86c.3.62.53,1.12.77,1.7h0c.25-.65.44-1.11.7-1.7l.86-1.86h2.64l-2.88,5,3,5.23Z"/></g></g></svg>