<svg xmlns="http://www.w3.org/2000/svg" viewBox="0 0 43.05 44"><defs><style>.cls-1{fill:#1f1613;}.cls-2{fill:#fff;}</style></defs><title>btn_cineroom_on</title><g id="Layer_2" data-name="Layer 2"><g id="Layer_1-2" data-name="Layer 1"><path class="cls-1" d="M43.05,34h0a10.59,10.59,0,0,0-2.86-7L40,26.84l0,0a9.84,9.84,0,0,0-1.31-1.09l0,0-.1-.07h0a10.07,10.07,0,0,0-1.29-.71V4.44A4.19,4.19,0,0,0,33.14,0h-29A4.19,4.19,0,0,0,0,4.44V36.27a4.08,4.08,0,0,0,4.12,3.8h21c.18.24.37.48.57.7s.35.36.53.53A9.64,9.64,0,0,0,27,42c.18.14.36.29.55.41a8.75,8.75,0,0,0,1.38.75c.2.09.42.16.63.24s.7.24,1.06.33l.64.14A10.18,10.18,0,0,0,33,44H33a9.9,9.9,0,0,0,2-.2,11.05,11.05,0,0,0,1.32-.4c.19-.07.39-.1.57-.18a1.51,1.51,0,0,0,.18-.09,8.9,8.9,0,0,0,1.39-.76,3.62,3.62,0,0,0,.38-.26,11.6,11.6,0,0,0,1.08-.89l.28-.27a10,10,0,0,0,2-2.94c.06-.13.1-.26.15-.39a8.54,8.54,0,0,0,.41-1.33c0-.16.08-.32.11-.48A10.78,10.78,0,0,0,43.05,34h0ZM29.79,2.92h3.35a1.21,1.21,0,0,1,1.21,1.2V9.26H29.79Zm0,9.26h4.56v6.4H29.79Zm0,9.32h4.56v2.56c-.43,0-.87-.09-1.32-.1h0l-.14,0a9.75,9.75,0,0,0-1.88.19H31a11.22,11.22,0,0,0-1.17.33Zm-19.4-9.32V2.92H26.88V18.58H10.39Zm-2.92,25H4.12A1.2,1.2,0,0,1,2.92,36V30.81H7.47Zm0-9.26H2.92V21.5H7.47Zm0-9.31H2.92v-6.4H7.47Zm0-9.32H2.92V4.12a1.2,1.2,0,0,1,1.2-1.2H7.47ZM23,34s0,.1,0,.15a11.05,11.05,0,0,0,.13,1.29,10.09,10.09,0,0,0,.45,1.76H10.39V21.5H26.88v4.59A10,10,0,0,0,23,34Z"/><path class="cls-2" d="M34.11,28.87a1.25,1.25,0,0,0-2.5,0v4h-4a1.25,1.25,0,0,0,0,2.5h4v4a1.25,1.25,0,1,0,2.5,0v-4h4a1.25,1.25,0,0,0,0-2.5h-4Z"/></g></g></svg>