<svg xmlns="http://www.w3.org/2000/svg" viewBox="0 0 80 80"><defs><style>.cls-1{fill:#e5e9f3;}.cls-2{fill:#d8deec;}.cls-3{fill:#f5f7fd;}.cls-4{fill:#fff;}.cls-5{fill:#69a8fb;}.cls-6{fill:#ed7254;}.cls-7{fill:#fece66;}</style></defs><title>category_03</title><g id="Layer_2" data-name="Layer 2"><g id="Layer_1-2" data-name="Layer 1"><circle class="cls-1" cx="40" cy="40" r="40" transform="translate(-16.57 40) rotate(-45)"/><path class="cls-2" d="M61.49,22.92a0,0,0,0,0,0,0l0,0a1.58,1.58,0,0,0-1.07-.43H19.61A1.55,1.55,0,0,0,18.07,24V56a1.51,1.51,0,0,0,.45,1.09L41.39,80A40,40,0,0,0,80,41.39Z"/><path class="cls-3" d="M61.94,56a1.54,1.54,0,0,1-.46,1.09,1.51,1.51,0,0,1-1.09.46H19.61a1.51,1.51,0,0,1-1.09-.46A1.5,1.5,0,0,1,18.06,56V30.35H61.94Z"/><path class="cls-4" d="M61.94,30.35H18.06V24a1.5,1.5,0,0,1,.46-1.09,1.51,1.51,0,0,1,1.09-.46H60.39a1.51,1.51,0,0,1,1.09.46A1.54,1.54,0,0,1,61.94,24Z"/><polygon class="cls-5" points="34.23 49.49 28.7 43.95 34.23 38.41 35.69 39.87 31.61 43.95 35.69 48.02 34.23 49.49"/><polygon class="cls-5" points="45.77 49.49 44.31 48.02 48.38 43.95 44.31 39.87 45.77 38.41 51.3 43.95 45.77 49.49"/><rect class="cls-5" x="31.95" y="42.92" width="16.1" height="2.06" transform="translate(-13.22 70.39) rotate(-74.11)"/><path class="cls-6" d="M23.23,26.4a1.3,1.3,0,1,1-1.3-1.29A1.3,1.3,0,0,1,23.23,26.4Z"/><path class="cls-7" d="M27.1,26.4a1.3,1.3,0,1,1-1.29-1.29A1.29,1.29,0,0,1,27.1,26.4Z"/><path class="cls-5" d="M31,26.4a1.29,1.29,0,1,1-1.29-1.29A1.29,1.29,0,0,1,31,26.4Z"/></g></g></svg>