<svg xmlns="http://www.w3.org/2000/svg" viewBox="0 0 80 80"><defs><style>.cls-1{fill:#e5e9f3;}.cls-2{fill:#d8deec;}.cls-3{fill:#fece66;}.cls-4{fill:#fff;}.cls-5{fill:#a6b0c7;}</style></defs><title>category_02</title><g id="Layer_2" data-name="Layer 2"><g id="Layer_1-2" data-name="Layer 1"><circle class="cls-1" cx="40" cy="40" r="40" transform="translate(-8.12 69.74) rotate(-76.72)"/><path class="cls-2" d="M52.25,21.16l-.06-.07-1-1L51.13,20A16.55,16.55,0,0,0,28.85,44.52l.47.41a12.84,12.84,0,0,1,4.21,9.52v1.44h-.9v8.78a1,1,0,0,0,.31.74l14,14a40,40,0,0,0,32.26-31.3Z"/><path class="cls-3" d="M40,15.74A16.55,16.55,0,0,0,28.85,44.52l.47.41a12.84,12.84,0,0,1,4.21,9.53v1.43H46.47V54.46a12.84,12.84,0,0,1,4.21-9.53l.47-.41A16.55,16.55,0,0,0,40,15.74Z"/><path class="cls-4" d="M40,43.13a.58.58,0,0,1-.49-.28L33.58,32.57a.58.58,0,0,1,0-.57.56.56,0,0,1,.49-.28h4.15L38.77,30a.58.58,0,0,1,.54-.39h0a.57.57,0,0,1,.54.39l.82,2.55.14-.44a.58.58,0,0,1,.54-.39h4.57a.57.57,0,0,1,.49.85L40.49,42.85A.58.58,0,0,1,40,43.13Zm-5-10.28,5,8.58,5-8.58H41.78l-.56,1.72a.56.56,0,0,1-.54.4.58.58,0,0,1-.54-.4L39.32,32l-.14.44a.57.57,0,0,1-.55.39Z"/><rect class="cls-4" x="39.43" y="42.56" width="1.14" height="13.33"/><polygon class="cls-4" points="40 68.39 35.53 65.72 44.48 65.72 40 68.39"/><path class="cls-5" d="M47.37,64.66a1.05,1.05,0,0,1-.31.75,1,1,0,0,1-.74.31H33.68a1,1,0,0,1-.74-.31,1.05,1.05,0,0,1-.31-.75V55.89H47.37Z"/><rect class="cls-2" x="32.63" y="56.98" width="14.74" height="1.09"/><rect class="cls-2" x="32.63" y="59.17" width="14.74" height="1.09"/><rect class="cls-2" x="32.63" y="61.35" width="14.74" height="1.09"/><rect class="cls-2" x="32.63" y="63.53" width="14.74" height="1.1"/></g></g></svg>