<svg xmlns="http://www.w3.org/2000/svg" viewBox="0 0 80 80"><defs><style>.cls-1{fill:#e5e9f3;}.cls-2{fill:#d8deec;}.cls-3{fill:#fff;}.cls-4{fill:#a6b0c7;}.cls-5{fill:#e6e5e5;}.cls-6{fill:#ed7254;}.cls-7{fill:#e24f3b;}.cls-8{fill:#ea6552;}</style></defs><title>category_05</title><g id="Layer_2" data-name="Layer 2"><g id="Layer_1-2" data-name="Layer 1"><circle class="cls-1" cx="40" cy="40" r="40"/><path class="cls-2" d="M80,40c0-.72,0-1.43-.06-2.14L61.48,19.4A1.53,1.53,0,0,0,60.39,19H19.61a1.55,1.55,0,0,0-1.09.45,1.52,1.52,0,0,0-.46,1.1V52.28a1.5,1.5,0,0,0,.46,1.09L44.84,79.7A40,40,0,0,0,80,40Z"/><rect class="cls-1" x="33.55" y="53.83" width="12.9" height="5.68"/><rect class="cls-3" x="30.45" y="59.51" width="19.1" height="1.55"/><path class="cls-4" d="M18.06,48.67V20.49A1.55,1.55,0,0,1,19.61,19H60.39a1.55,1.55,0,0,1,1.09.45,1.51,1.51,0,0,1,.46,1.09V48.67Z"/><rect class="cls-4" x="20.9" y="21.78" width="38.19" height="24.04"/><path class="cls-3" d="M61.94,52.28a1.5,1.5,0,0,1-.46,1.09,1.51,1.51,0,0,1-1.09.46H19.61a1.51,1.51,0,0,1-1.09-.46,1.54,1.54,0,0,1-.46-1.09V48.67H61.94Z"/><rect class="cls-2" x="20.9" y="43.64" width="38.19" height="2.18"/><path class="cls-3" d="M37.82,21.78H20.9V43.64H37.82A2.19,2.19,0,0,1,40,45.83V24A2.19,2.19,0,0,0,37.82,21.78Z"/><path class="cls-3" d="M42.19,21.78H59.1V43.64H42.19A2.19,2.19,0,0,0,40,45.83V24A2.19,2.19,0,0,1,42.19,21.78Z"/><path class="cls-5" d="M37.82,21.78V43.64A2.19,2.19,0,0,1,40,45.83V24A2.19,2.19,0,0,0,37.82,21.78Z"/><rect class="cls-1" x="49.15" y="23.97" width="7.76" height="1.03"/><rect class="cls-1" x="49.15" y="26.03" width="7.76" height="1.03"/><rect class="cls-1" x="49.15" y="28.08" width="7.76" height="1.03"/><rect class="cls-1" x="44.37" y="30.14" width="12.54" height="1.03"/><rect class="cls-1" x="44.37" y="32.2" width="12.54" height="1.03"/><rect class="cls-1" x="44.37" y="34.26" width="12.54" height="1.03"/><rect class="cls-1" x="44.37" y="36.31" width="12.54" height="1.03"/><rect class="cls-1" x="44.37" y="38.37" width="12.54" height="1.03"/><rect class="cls-1" x="44.37" y="40.43" width="12.54" height="1.03"/><path class="cls-4" d="M47.68,24.42A1.53,1.53,0,0,0,46.6,24h-.7a1.54,1.54,0,0,0-1.53,1.53v3.61h1V27h1.81v2.08h1V25.5A1.5,1.5,0,0,0,47.68,24.42Zm-2.34,1.64V25.5a.58.58,0,0,1,.56-.56h.7a.56.56,0,0,1,.55.56v.56Z"/><rect class="cls-4" x="23.09" y="23.97" width="12.54" height="1.03"/><rect class="cls-1" x="23.09" y="34.26" width="6.27" height="1.03"/><rect class="cls-1" x="26.22" y="36.31" width="9.4" height="1.03"/><rect class="cls-1" x="26.22" y="38.37" width="9.4" height="1.03"/><rect class="cls-1" x="26.22" y="40.43" width="9.4" height="1.03"/><rect class="cls-6" x="23.09" y="26.03" width="12.54" height="7.2"/><polygon class="cls-3" points="28.33 28.43 30.39 29.63 28.33 30.82 28.33 28.43"/><rect class="cls-1" x="38.91" y="27.92" width="0.73" height="11.55"/><rect class="cls-2" x="39.64" y="27.92" width="0.73" height="11.55"/><rect class="cls-4" x="40.36" y="27.92" width="0.73" height="11.55"/><polygon class="cls-3" points="41.09 27.92 40.36 26.66 39.64 26.66 38.91 27.92 41.09 27.92"/><polygon class="cls-5" points="41.09 27.92 40.36 27.92 40.12 26.66 40.36 26.66 41.09 27.92"/><polygon class="cls-4" points="40.36 26.66 40 26.03 39.64 26.66 40.36 26.66"/><rect class="cls-5" x="40.36" y="39.47" width="0.73" height="0.73"/><rect class="cls-3" x="38.91" y="39.47" width="1.46" height="0.73"/><path class="cls-7" d="M41.09,40.37V40.2h-.73v.17a1.07,1.07,0,0,1-.73,1,1.21,1.21,0,0,0,.37.07,1.09,1.09,0,0,0,.77-.32A1.13,1.13,0,0,0,41.09,40.37Z"/><path class="cls-8" d="M40.36,40.37V40.2H38.91v.17a1.13,1.13,0,0,0,.32.77,1.22,1.22,0,0,0,.4.25,1.07,1.07,0,0,0,.73-1Z"/></g></g></svg>