<svg xmlns="http://www.w3.org/2000/svg" viewBox="0 0 80 80"><defs><style>.cls-1{fill:#e5e9f3;}.cls-2{fill:#d8deec;}.cls-3{fill:#fff;}.cls-4{fill:#f5f7fd;}.cls-5{fill:#d9d8d7;}.cls-6{fill:#69a8fb;}.cls-7{fill:#a6b0c7;}.cls-8{fill:#ed7254;}.cls-9{fill:#6e788e;}</style></defs><title>category_04</title><g id="Layer_2" data-name="Layer 2"><g id="Layer_1-2" data-name="Layer 1"><circle class="cls-1" cx="40" cy="40" r="40" transform="translate(-16.57 40) rotate(-45)"/><path class="cls-2" d="M56.59,18.9a2.81,2.81,0,0,0-2-.84h-32a2.84,2.84,0,0,0-2.84,2.84,3.42,3.42,0,0,0,0,.46.2.2,0,0,1,0,.07c0,.14.07.28.11.41l0,.08c.05.13.11.25.17.37l0,.08a3,3,0,0,0,.2.29.1.1,0,0,1,0,.05l0,0a2.42,2.42,0,0,0,.32.32l4.68,4.68V59.1A2.79,2.79,0,0,0,26.13,61l.22.23,18.5,18.5A40,40,0,0,0,79.93,42.24Z"/><path class="cls-3" d="M22.58,18.06a2.84,2.84,0,0,1,2.84,2.84V59.1a2.84,2.84,0,0,0,2.84,2.84H57.42v-41a2.85,2.85,0,0,0-2.84-2.84Z"/><path class="cls-1" d="M60.26,59.09a2.84,2.84,0,0,0-2.84-2.83H28.26a2.84,2.84,0,1,1,0,5.68H57.42A2.85,2.85,0,0,0,60.26,59.09Z"/><path class="cls-1" d="M22.58,18.06a2.84,2.84,0,0,0,0,5.68h2.84V20.9A2.84,2.84,0,0,0,22.58,18.06Z"/><rect class="cls-4" x="46.84" y="32.16" width="5.42" height="17.34"/><path class="cls-5" d="M41.81,36.88H30.19V31.77H41.81ZM31,36.1H41V32.54H31Z"/><path class="cls-5" d="M47.23,36.88H41V31.77h6.2Zm-5.42-.78h4.64V32.54H41.81Z"/><path class="cls-5" d="M52.64,36.88H46.45V31.77h6.19Zm-5.41-.78h4.64V32.54H47.23Z"/><path class="cls-5" d="M41.81,41.21H30.19V36.1H41.81ZM31,40.44H41V36.88H31Z"/><path class="cls-5" d="M47.23,41.21H41V36.1h6.2Zm-5.42-.77h4.64V36.88H41.81Z"/><path class="cls-5" d="M52.64,41.21H46.45V36.1h6.19Zm-5.41-.77h4.64V36.88H47.23Z"/><path class="cls-5" d="M41.81,45.55H30.19V40.44H41.81ZM31,44.77H41V41.21H31Z"/><path class="cls-5" d="M47.23,45.55H41V40.44h6.2Zm-5.42-.78h4.64V41.21H41.81Z"/><path class="cls-5" d="M52.64,45.55H46.45V40.44h6.19Zm-5.41-.78h4.64V41.21H47.23Z"/><path class="cls-6" d="M47.23,45.55H41V40.44h6.2Zm-5.42-.78h4.64V41.21H41.81Z"/><rect class="cls-6" x="30.19" y="26.51" width="5.81" height="0.77"/><rect class="cls-7" x="46.45" y="51.43" width="6.19" height="0.77"/><rect class="cls-8" x="30.19" y="24.96" width="11.61" height="0.77"/><path class="cls-9" d="M30.19,28.83V49.88H52.64V28.83Zm11.62,3.71h4.64V36.1H41.81Zm0,4.34h4.64v3.56H41.81Zm0,4.33h4.64v3.56H41.81ZM31,32.54H41V36.1H31Zm0,4.34H41v3.56H31ZM41,49.11H31V45.55H41ZM31,44.77V41.21H41v3.56Zm15.48,4.34H41.81V45.55h4.64Zm5.42,0H47.23V45.55h4.64Zm0-4.34H47.23V41.21h4.64Zm0-4.33H47.23V36.88h4.64ZM47.23,36.1V32.54h4.64V36.1Z"/></g></g></svg>