<svg xmlns="http://www.w3.org/2000/svg" viewBox="0 0 80 80"><defs><style>.cls-1{fill:#e5e9f3;}.cls-2{fill:#d8deec;}.cls-3{fill:#fff;}.cls-4{fill:#fece66;}.cls-5{fill:#6e788e;}</style></defs><title>category_08</title><g id="Layer_2" data-name="Layer 2"><g id="Layer_1-2" data-name="Layer 1"><path class="cls-1" d="M80,40A40,40,0,1,1,40,0,40,40,0,0,1,80,40Z"/><path class="cls-2" d="M44.89,79.69a40,40,0,0,0,34.8-34.8L56.76,22l-9.13,9.13L37.15,20.62,20.62,37.16,31.09,47.63,22,56.76Z"/><rect class="cls-3" x="26.66" y="38.46" width="29.76" height="6.15" transform="translate(-17.21 41.54) rotate(-45)"/><path class="cls-3" d="M61.11,26.31l-4.18,4.18-4.35-4.35L56.76,22a6.67,6.67,0,1,0,4.35,4.35Z"/><path class="cls-3" d="M22,56.76l4.18-4.18,4.35,4.35-4.18,4.18A6.67,6.67,0,1,0,22,56.76Z"/><path class="cls-4" d="M60.63,56.28a1.59,1.59,0,0,1,0,2.24l-2.11,2.11a1.56,1.56,0,0,1-1.12.46,1.55,1.55,0,0,1-1.12-.46L29.46,33.81l4.35-4.35Z"/><polygon class="cls-5" points="35.12 18.58 33.08 18.58 18.58 33.08 18.58 35.12 22.35 38.89 24.38 38.89 38.89 24.38 38.89 22.35 35.12 18.58"/></g></g></svg>