<svg xmlns="http://www.w3.org/2000/svg" viewBox="0 0 80 80"><defs><style>.cls-1{fill:#e5e9f3;}.cls-2{fill:#d8deec;}.cls-3{fill:#fff;}.cls-4{fill:#a6b0c7;}.cls-5{fill:#ed7254;}.cls-6{fill:#6e788e;}.cls-7{fill:#f5f7fd;}</style></defs><title>category_07</title><g id="Layer_2" data-name="Layer 2"><g id="Layer_1-2" data-name="Layer 1"><circle class="cls-1" cx="40" cy="40" r="40"/><path class="cls-2" d="M79.87,43,60.65,23.81H58.21v4.05l-4-4.05H25.83v4.05l-4-4.05H19.36V56.19L43,79.88A40,40,0,0,0,79.87,43Z"/><rect class="cls-3" x="27.05" y="23.81" width="25.91" height="32.39"/><rect class="cls-4" x="25.83" y="49.71" width="2.43" height="6.48"/><rect class="cls-4" x="19.36" y="49.71" width="2.43" height="6.48"/><path class="cls-4" d="M28.26,50.93h-8.9V42h8.9ZM21.78,48.5h4v-4h-4Z"/><rect class="cls-4" x="25.83" y="36.76" width="2.43" height="6.48"/><rect class="cls-4" x="19.36" y="36.76" width="2.43" height="6.48"/><path class="cls-4" d="M28.26,38h-8.9V29.07h8.9Zm-6.48-2.43h4v-4h-4Z"/><rect class="cls-4" x="25.83" y="23.81" width="2.43" height="6.48"/><rect class="cls-4" x="19.36" y="23.81" width="2.43" height="6.48"/><rect class="cls-4" x="58.22" y="49.71" width="2.43" height="6.48"/><rect class="cls-4" x="51.74" y="49.71" width="2.43" height="6.48"/><path class="cls-4" d="M60.65,50.93H51.74V42h8.91ZM54.17,48.5h4v-4h-4Z"/><rect class="cls-4" x="58.22" y="36.76" width="2.43" height="6.48"/><rect class="cls-4" x="51.74" y="36.76" width="2.43" height="6.48"/><path class="cls-4" d="M60.65,38H51.74V29.07h8.91Zm-6.48-2.43h4v-4h-4Z"/><rect class="cls-4" x="58.22" y="23.81" width="2.43" height="6.48"/><rect class="cls-4" x="51.74" y="23.81" width="2.43" height="6.48"/><path class="cls-5" d="M45.59,40A5.59,5.59,0,1,1,40,34.41,5.59,5.59,0,0,1,45.59,40Z"/><path class="cls-6" d="M40,46.8A6.8,6.8,0,1,1,46.8,40,6.81,6.81,0,0,1,40,46.8Zm0-11.17A4.37,4.37,0,1,0,44.37,40,4.37,4.37,0,0,0,40,35.63Z"/><polygon class="cls-7" points="38.88 38.05 42.25 40 38.88 41.95 38.88 38.05"/></g></g></svg>