<svg xmlns="http://www.w3.org/2000/svg" viewBox="0 0 80 80"><defs><style>.cls-1{fill:#e5e9f3;}.cls-2{fill:#d8deec;}.cls-3{fill:#f5f7fd;}.cls-4{fill:#fff;}.cls-5{fill:#69a8fb;}.cls-6{fill:#ed7254;}.cls-7{fill:#f5b540;}</style></defs><title>category_01</title><g id="Layer_2" data-name="Layer 2"><g id="Layer_1-2" data-name="Layer 1"><circle class="cls-1" cx="40" cy="40" r="40" transform="translate(-16.57 40) rotate(-45)"/><path class="cls-2" d="M61.48,22.91a1.5,1.5,0,0,0-1.09-.46H19.61a1.5,1.5,0,0,0-1.09.46A1.48,1.48,0,0,0,18.06,24V56a1.48,1.48,0,0,0,.46,1.09L41.39,80A40,40,0,0,0,80,41.39Z"/><path class="cls-3" d="M61.94,56a1.54,1.54,0,0,1-.46,1.09,1.51,1.51,0,0,1-1.09.46H19.61a1.51,1.51,0,0,1-1.09-.46A1.54,1.54,0,0,1,18.06,56V30.35H61.94Z"/><path class="cls-4" d="M61.94,30.35H18.06V24a1.54,1.54,0,0,1,.46-1.09,1.51,1.51,0,0,1,1.09-.46H60.39a1.51,1.51,0,0,1,1.09.46A1.54,1.54,0,0,1,61.94,24Z"/><rect class="cls-5" x="34.45" y="33.67" width="11.1" height="9.29"/><rect class="cls-2" x="31.48" y="33.67" width="1.03" height="1.03"/><path class="cls-2" d="M30.48,34.71h-1v-1h1Zm-2,0h-1v-1h1Zm-2,0h-1v-1h1Zm-2,0h-1v-1h1Z"/><rect class="cls-2" x="21.42" y="33.67" width="1.03" height="1.03"/><path class="cls-2" d="M22.45,40.9h-1v-1h1Zm0-2.06h-1v-1h1Zm0-2.07h-1v-1h1Z"/><rect class="cls-2" x="21.42" y="41.94" width="1.03" height="1.03"/><path class="cls-2" d="M30.48,43h-1v-1h1Zm-2,0h-1v-1h1Zm-2,0h-1v-1h1Zm-2,0h-1v-1h1Z"/><rect class="cls-2" x="31.48" y="41.94" width="1.03" height="1.03"/><path class="cls-2" d="M32.52,40.9h-1v-1h1Zm0-2.06h-1v-1h1Zm0-2.07h-1v-1h1Z"/><rect class="cls-2" x="57.55" y="33.67" width="1.03" height="1.03"/><path class="cls-2" d="M56.54,34.71h-1v-1h1Zm-2,0h-1v-1h1Zm-2,0h-1v-1h1Zm-2,0h-1v-1h1Z"/><rect class="cls-2" x="47.48" y="33.67" width="1.03" height="1.03"/><path class="cls-2" d="M48.52,40.9h-1v-1h1Zm0-2.06h-1v-1h1Zm0-2.07h-1v-1h1Z"/><rect class="cls-2" x="47.48" y="41.94" width="1.03" height="1.03"/><path class="cls-2" d="M56.54,43h-1v-1h1Zm-2,0h-1v-1h1Zm-2,0h-1v-1h1Zm-2,0h-1v-1h1Z"/><rect class="cls-2" x="57.55" y="41.94" width="1.03" height="1.03"/><path class="cls-2" d="M58.58,40.9h-1v-1h1Zm0-2.06h-1v-1h1Zm0-2.07h-1v-1h1Z"/><rect class="cls-2" x="31.48" y="44.9" width="1.03" height="1.03"/><path class="cls-2" d="M30.48,45.94h-1v-1h1Zm-2,0h-1v-1h1Zm-2,0h-1v-1h1Zm-2,0h-1v-1h1Z"/><rect class="cls-2" x="21.42" y="44.9" width="1.03" height="1.03"/><path class="cls-2" d="M22.45,52.13h-1v-1h1Zm0-2.07h-1V49h1Zm0-2.06h-1V47h1Z"/><rect class="cls-2" x="21.42" y="53.16" width="1.03" height="1.03"/><path class="cls-2" d="M30.48,54.19h-1v-1h1Zm-2,0h-1v-1h1Zm-2,0h-1v-1h1Zm-2,0h-1v-1h1Z"/><rect class="cls-2" x="31.48" y="53.16" width="1.03" height="1.03"/><path class="cls-2" d="M32.52,52.13h-1v-1h1Zm0-2.07h-1V49h1Zm0-2.06h-1V47h1Z"/><rect class="cls-2" x="57.55" y="44.9" width="1.03" height="1.03"/><path class="cls-2" d="M56.54,45.94h-1v-1h1Zm-2,0h-1v-1h1Zm-2,0h-1v-1h1Zm-2,0h-1v-1h1Z"/><rect class="cls-2" x="47.48" y="44.9" width="1.03" height="1.03"/><path class="cls-2" d="M48.52,52.13h-1v-1h1Zm0-2.07h-1V49h1Zm0-2.06h-1V47h1Z"/><rect class="cls-2" x="47.48" y="53.16" width="1.03" height="1.03"/><path class="cls-2" d="M56.54,54.19h-1v-1h1Zm-2,0h-1v-1h1Zm-2,0h-1v-1h1Zm-2,0h-1v-1h1Z"/><rect class="cls-2" x="57.55" y="53.16" width="1.03" height="1.03"/><path class="cls-2" d="M58.58,52.13h-1v-1h1Zm0-2.07h-1V49h1Zm0-2.06h-1V47h1Z"/><rect class="cls-2" x="44.52" y="44.9" width="1.03" height="1.03"/><path class="cls-2" d="M43.51,45.94h-1v-1h1Zm-2,0h-1v-1h1Zm-2,0h-1v-1h1Zm-2,0h-1v-1h1Z"/><rect class="cls-2" x="34.45" y="44.9" width="1.03" height="1.03"/><path class="cls-2" d="M35.48,52.13h-1v-1h1Zm0-2.07h-1V49h1Zm0-2.06h-1V47h1Z"/><rect class="cls-2" x="34.45" y="53.16" width="1.03" height="1.03"/><path class="cls-2" d="M43.51,54.19h-1v-1h1Zm-2,0h-1v-1h1Zm-2,0h-1v-1h1Zm-2,0h-1v-1h1Z"/><rect class="cls-2" x="44.52" y="53.16" width="1.03" height="1.03"/><path class="cls-2" d="M45.55,52.13h-1v-1h1Zm0-2.07h-1V49h1Zm0-2.06h-1V47h1Z"/><path class="cls-6" d="M23.23,26.4a1.3,1.3,0,1,1-1.29-1.29A1.29,1.29,0,0,1,23.23,26.4Z"/><path class="cls-7" d="M27.1,26.4a1.29,1.29,0,1,1-1.29-1.29A1.29,1.29,0,0,1,27.1,26.4Z"/><path class="cls-5" d="M31,26.4a1.29,1.29,0,1,1-1.29-1.29A1.29,1.29,0,0,1,31,26.4Z"/></g></g></svg>