<svg xmlns="http://www.w3.org/2000/svg" viewBox="0 0 80 80"><defs><style>.cls-1{fill:#e5e9f3;}.cls-2{fill:#d8deec;}.cls-3{fill:#a6b0c7;}.cls-4{fill:#ed7254;}.cls-5{fill:#69a8fb;}.cls-6{fill:#f5f7fd;}</style></defs><title>category_06</title><g id="Layer_2" data-name="Layer 2"><g id="Layer_1-2" data-name="Layer 1"><path class="cls-1" d="M80,40A40,40,0,1,1,40,0,40,40,0,0,1,80,40Z"/><path class="cls-2" d="M79.16,48.17,56,25,55,24A21.82,21.82,0,0,0,40.3,18.07h-.6A21.92,21.92,0,0,0,23.91,54.9l1.19,1.19L48.18,79.16A40,40,0,0,0,79.16,48.17Z"/><path class="cls-3" d="M40,18.07A21.94,21.94,0,1,0,61.93,40,22,22,0,0,0,40,18.07Zm-9.65,22.8h8.78v8.8H31.57A37.46,37.46,0,0,1,30.35,40.87Zm19.29-1.74H40.87v-8.8h7.56A37.1,37.1,0,0,1,49.64,39.13Zm-10.51,0H30.35a37.61,37.61,0,0,1,1.22-8.8h7.56Zm1.74,1.74h8.77a37,37,0,0,1-1.21,8.8H40.87Zm19.29,0a20,20,0,0,1-2.47,8.8H50.26a39.92,39.92,0,0,0,1.12-8.8Zm-8.78-1.74a39.92,39.92,0,0,0-1.12-8.8h7.43a20,20,0,0,1,2.47,8.8ZM56.64,28.6H49.77a19.39,19.39,0,0,0-4.45-8.06A20.24,20.24,0,0,1,56.64,28.6Zm-8.73,0h-7V19.89C43.75,20.46,46.3,23.81,47.91,28.6Zm-8.78-8.71V28.6h-7C33.69,23.8,36.25,20.46,39.13,19.89Zm-4.45.65a19.39,19.39,0,0,0-4.45,8.06H23.36A20.2,20.2,0,0,1,34.68,20.54ZM22.31,30.33h7.43a39.92,39.92,0,0,0-1.12,8.8H19.84A20,20,0,0,1,22.31,30.33Zm6.31,10.54a39.92,39.92,0,0,0,1.12,8.8H22.31a20,20,0,0,1-2.47-8.8ZM23.36,51.4h6.87a19.49,19.49,0,0,0,4.44,8.06A20.21,20.21,0,0,1,23.36,51.4Zm8.73,0h7v8.71C36.25,59.54,33.69,56.2,32.09,51.4Zm8.78,8.71V51.4h7C46.3,56.19,43.75,59.54,40.87,60.11Zm4.46-.65a19.49,19.49,0,0,0,4.44-8.06h6.87A20.21,20.21,0,0,1,45.33,59.46Z"/><path class="cls-4" d="M33.26,40a3.8,3.8,0,1,1-3.8-3.79A3.79,3.79,0,0,1,33.26,40Z"/><path class="cls-5" d="M52.92,29.47a3.8,3.8,0,1,1-3.8-3.8A3.8,3.8,0,0,1,52.92,29.47Z"/><path class="cls-6" d="M52.92,50.54a3.8,3.8,0,1,1-3.8-3.8A3.8,3.8,0,0,1,52.92,50.54Z"/><path class="cls-3" d="M29.46,44.66A4.66,4.66,0,1,1,34.12,40,4.66,4.66,0,0,1,29.46,44.66Zm0-7.58A2.92,2.92,0,1,0,32.39,40,2.92,2.92,0,0,0,29.46,37.08Z"/><path class="cls-3" d="M49.12,34.13a4.66,4.66,0,1,1,4.66-4.66A4.66,4.66,0,0,1,49.12,34.13Zm0-7.59a2.93,2.93,0,1,0,2.93,2.93A2.93,2.93,0,0,0,49.12,26.54Z"/><path class="cls-3" d="M49.12,55.19a4.66,4.66,0,1,1,4.66-4.65A4.66,4.66,0,0,1,49.12,55.19Zm0-7.58a2.93,2.93,0,1,0,2.93,2.93A2.93,2.93,0,0,0,49.12,47.61Z"/></g></g></svg>