<svg xmlns="http://www.w3.org/2000/svg" viewBox="0 0 18 15.69"><defs><style>.cls-1{fill:#ea634d;}.cls-2{fill:#bb5137;}.cls-3{fill:#1f1613;}</style></defs><title>icon-folder-none-over</title><g id="레이어_2" data-name="레이어 2"><g id="Layer_1" data-name="Layer 1"><path class="cls-1" d="M.63,13.75A1.16,1.16,0,0,0,1.79,14.9H16.21a1.16,1.16,0,0,0,1.16-1.15V7.38a1.15,1.15,0,0,0-1.16-1.15H1.79A1.15,1.15,0,0,0,.63,7.38Z"/><path class="cls-2" d="M17.37,6.23V3.81a1.16,1.16,0,0,0-1.16-1.16H9.62a1.14,1.14,0,0,1-1-.51l-.47-.7a1.16,1.16,0,0,0-1-.52H1.79A1.16,1.16,0,0,0,.63,2.08V6.23Z"/><path class="cls-3" d="M16.21,1.73H9.62a.54.54,0,0,1-.44-.23L8.72.8A1.8,1.8,0,0,0,7.23,0H1.79A1.82,1.82,0,0,0,0,1.92V14a1.77,1.77,0,0,0,1.79,1.65H16.21A1.79,1.79,0,0,0,18,13.91V3.65A1.82,1.82,0,0,0,16.21,1.73ZM1.26,1.79a.53.53,0,0,1,.53-.53H7.23a.51.51,0,0,1,.43.24l.47.7A1.78,1.78,0,0,0,9.62,3h6.59a.52.52,0,0,1,.53.52V5.81a1.84,1.84,0,0,0-.53-.08H1.79a1.89,1.89,0,0,0-.53.08Zm15,12.64H1.79a.53.53,0,0,1-.53-.52V7.52A.52.52,0,0,1,1.79,7H16.21a.52.52,0,0,1,.53.52v6.39A.53.53,0,0,1,16.21,14.43Z"/></g></g></svg>