<svg xmlns="http://www.w3.org/2000/svg" viewBox="0 0 85.38 71.3"><defs><style>.cls-1{fill:#a6b0c7;}</style></defs><title>icon_fileupload</title><g id="Layer_2" data-name="Layer 2"><g id="Layer_1-2" data-name="Layer 1"><path class="cls-1" d="M77.58,27.07a13.06,13.06,0,0,0-19-14A26.14,26.14,0,0,0,9.83,26.15c0,.1,0,.2,0,.3a17.94,17.94,0,0,0,8.1,34c.27,0,.54,0,.88,0h19V56.64h-19l-.32,0c-.18,0-.37,0-.56,0a14.22,14.22,0,0,1-5.45-27.35,1.84,1.84,0,0,0,1.14-1.82l0-.44c0-.31,0-.61,0-.92a22.41,22.41,0,0,1,42.65-9.63,1.89,1.89,0,0,0,1.26,1A1.85,1.85,0,0,0,59,17.19a9.24,9.24,0,0,1,5.71-2,9.35,9.35,0,0,1,9.34,9.35,9.22,9.22,0,0,1-.42,2.78,1.86,1.86,0,0,0,.83,2.16,14.58,14.58,0,0,1-7.21,27.12l-.29,0H47.55v3.71h20A18.3,18.3,0,0,0,77.58,27.07Z"/><path class="cls-1" d="M51,50.67a1.86,1.86,0,0,0,1.32-3.18L44,39.23l0,0a2,2,0,0,0-.57-.37h0a1.86,1.86,0,0,0-.7-.14,1.82,1.82,0,0,0-.72.15,1.79,1.79,0,0,0-.56.38l0,0-8.29,8.26a1.86,1.86,0,0,0,2.63,2.64L40.83,45h0v24.4a1.86,1.86,0,0,0,3.72,0V45h0l5.11,5.09A1.86,1.86,0,0,0,51,50.67Z"/></g></g></svg>