<svg xmlns="http://www.w3.org/2000/svg" viewBox="0 0 37.29 15.69"><defs><style>.cls-1{fill:#e2e7f2;}.cls-2{fill:#a3adc3;}.cls-3{fill:#fff;}.cls-4,.cls-5{fill:none;stroke:#6c788f;stroke-miterlimit:10;}.cls-5{stroke-dasharray:3.13 2.08;}</style></defs><title>icon-folder-none-on_1</title><g id="레이어_2" data-name="레이어 2"><g id="Layer_1" data-name="Layer 1"><path class="cls-1" d="M36.57,14.43V3.36A1.16,1.16,0,0,0,35.41,2.2H28.82a1.14,1.14,0,0,1-1-.51L27.39,1a1.14,1.14,0,0,0-1-.51H21a1.16,1.16,0,0,0-1.16,1.16v12.8Z"/><path class="cls-2" d="M35.5,1.73H28.91a.54.54,0,0,1-.44-.23L28,.8A1.77,1.77,0,0,0,26.52,0H21.08a1.82,1.82,0,0,0-1.79,1.92V14a1.77,1.77,0,0,0,1.79,1.65H35.5a1.79,1.79,0,0,0,1.79-1.78V3.65A1.82,1.82,0,0,0,35.5,1.73Zm0,12.7H21.08a.53.53,0,0,1-.53-.52V1.79a.53.53,0,0,1,.53-.53h5.44A.51.51,0,0,1,27,1.5l.47.7a1.78,1.78,0,0,0,1.49.8H35.5a.52.52,0,0,1,.53.52V13.91A.53.53,0,0,1,35.5,14.43Z"/><line class="cls-3" y1="7.85" x2="15.5" y2="7.85"/><line class="cls-4" y1="7.85" x2="1.5" y2="7.85"/><line class="cls-5" x1="3.58" y1="7.85" x2="12.96" y2="7.85"/><line class="cls-4" x1="14" y1="7.85" x2="15.5" y2="7.85"/></g></g></svg>