<svg xmlns="http://www.w3.org/2000/svg" viewBox="0 0 17.01 17.01"><defs><style>.cls-1{fill:#33353b;fill-rule:evenodd;}</style></defs><title>icon_edit_on</title><g id="레이어_2" data-name="레이어 2"><g id="레이어_1-2" data-name="레이어 1"><g id="Layer_2" data-name="Layer 2"><g id="Layer_1-2" data-name="Layer 1-2"><path class="cls-1" d="M12.5,5.59a.4.4,0,0,0-.54,0L4.68,12.87a.37.37,0,0,0,0,.52l0,0a.16.16,0,0,0,.09.07l.6.3v1l-1.83.52L1.7,13.46l.52-1.83h1l.3.6a.36.36,0,0,0,.49.18H4l.1-.07,7.29-7.28a.39.39,0,0,0,0-.54h0L10,3.1a.4.4,0,0,0-.54,0L1.66,11h0a.28.28,0,0,0-.08.15L.9,13.47l-.86,3A.37.37,0,0,0,.21,17L.3,17a.26.26,0,0,0,.21,0l3-.86,2.33-.67H6L13.9,7.65a.39.39,0,0,0,0-.54h0Zm4.1-3L14.46.4a1.46,1.46,0,0,0-2,0L11.12,1.72a.36.36,0,0,0,0,.51l3.66,3.66a.37.37,0,0,0,.5,0h0L16.6,4.57a1.44,1.44,0,0,0,0-2"/></g></g></g></g></svg>