<svg xmlns="http://www.w3.org/2000/svg" viewBox="0 0 17.71 20"><defs><style>.cls-1{fill:#1f1613;}</style></defs><title>icon_excel</title><g id="Layer_2" data-name="Layer 2"><g id="Layer_1-2" data-name="Layer 1"><path class="cls-1" d="M16.59,7.15h-.48V4.79a.35.35,0,0,0-.1-.25L12.16.13h0L12.08.07l0,0L12,0H2.39A.78.78,0,0,0,1.6.78V7.15H1.12A1.12,1.12,0,0,0,0,8.27V14.1a1.13,1.13,0,0,0,1.12,1.13H1.6v4a.78.78,0,0,0,.79.78H15.33a.78.78,0,0,0,.78-.78v-4h.48a1.13,1.13,0,0,0,1.12-1.13V8.27A1.12,1.12,0,0,0,16.59,7.15ZM2.84,1.24h8.63V4.8a.4.4,0,0,0,.39.39h3v2h-12Zm7.49,10.24c-.77-.27-1.27-.7-1.27-1.37s.66-1.4,1.75-1.4A2.76,2.76,0,0,1,12,9l-.24.84a2.15,2.15,0,0,0-1-.22c-.45,0-.67.21-.67.45s.26.43.86.65c.82.31,1.2.73,1.2,1.39s-.6,1.43-1.87,1.43A2.93,2.93,0,0,1,9,13.21l.21-.87a2.57,2.57,0,0,0,1.16.29c.48,0,.74-.2.74-.5S10.89,11.68,10.33,11.48ZM8.56,12.54v.89H5.66V8.79h1v3.75Zm-6.27.89H1.1l1.34-2.35L1.14,8.79H2.35l.4.84c.14.29.25.51.36.77h0c.11-.29.2-.5.32-.77l.39-.84H5L3.72,11.05l1.37,2.38H3.88l-.42-.84c-.17-.33-.28-.57-.41-.84H3c-.1.27-.22.51-.36.84Zm.55,5.12V15.23h12v3.32Zm12.49-5.12-.42-.84c-.17-.33-.28-.57-.41-.84h0c-.1.27-.22.51-.36.84l-.39.84H12.55l1.34-2.35-1.3-2.29H13.8l.41.84c.13.29.24.51.35.77h0c.11-.29.2-.5.32-.77l.39-.84h1.2l-1.31,2.26,1.37,2.38Z"/></g></g></svg>