<svg xmlns="http://www.w3.org/2000/svg" viewBox="0 0 17 17"><defs><style>.cls-1{fill:#a6b0c7;}</style></defs><title>icone-edit_1</title><g id="레이어_2" data-name="레이어 2"><g id="Layer_1" data-name="Layer 1"><path class="cls-1" d="M12.48,5.6a.4.4,0,0,0-.54,0L4.66,12.88a.37.37,0,0,0,0,.54.2.2,0,0,0,.09.07l.6.3v1l-1.83.52L1.68,13.47l.52-1.83h1l.3.6a.37.37,0,0,0,.51.17l.1-.07L11.4,5.06a.38.38,0,0,0,0-.54L10,3.11a.39.39,0,0,0-.54,0L1.64,11h0a.37.37,0,0,0-.08.15L.88,13.48l-.86,3A.37.37,0,0,0,.28,17a.26.26,0,0,0,.21,0l3-.86,2.33-.67h0a.15.15,0,0,0,.07,0l.06,0H6l7.88-7.81a.38.38,0,0,0,0-.54Zm4.1-3L14.44.41a1.45,1.45,0,0,0-2,0L11.1,1.73a.37.37,0,0,0,0,.51L14.76,5.9a.36.36,0,0,0,.5,0h0l1.32-1.32a1.42,1.42,0,0,0,0-2"/></g></g></svg>