<svg xmlns="http://www.w3.org/2000/svg" viewBox="0 0 184.29 158.84"><defs><style>.cls-1{fill:#c9e1e6;}.cls-2{fill:#72b8c9;}.cls-3{fill:#fff;}.cls-4{fill:#d3d8e4;}.cls-5{fill:#b1dde5;}.cls-6{fill:#f0d76a;}</style></defs><title>img-email-success</title><g id="레이어_2" data-name="레이어 2"><g id="Login_Register" data-name="Login &amp; Register"><path class="cls-1" d="M27.46,112.6A4.36,4.36,0,1,0,31.82,117,4.36,4.36,0,0,0,27.46,112.6Zm0,6.12A1.76,1.76,0,1,1,29.22,117,1.76,1.76,0,0,1,27.46,118.72Z"/><path class="cls-1" d="M144.21,130.23a4.36,4.36,0,1,0,4.35,4.36A4.36,4.36,0,0,0,144.21,130.23Zm0,6.12a1.77,1.77,0,1,1,1.76-1.76A1.76,1.76,0,0,1,144.21,136.35Z"/><path class="cls-1" d="M179.85,62.56a3.34,3.34,0,1,0,3.33,3.34A3.35,3.35,0,0,0,179.85,62.56Zm0,4.69a1.35,1.35,0,1,1,1.35-1.35A1.34,1.34,0,0,1,179.85,67.25Z"/><path class="cls-1" d="M121.11,9.2a3.53,3.53,0,1,0,3.53,3.53A3.53,3.53,0,0,0,121.11,9.2Zm0,5a1.43,1.43,0,1,1,1.43-1.43A1.43,1.43,0,0,1,121.11,14.16Z"/><path class="cls-1" d="M8.29,91.38A3.71,3.71,0,1,0,12,95.09,3.71,3.71,0,0,0,8.29,91.38Z"/><path class="cls-1" d="M157.07,103.66a2.7,2.7,0,1,0,2.7,2.69A2.69,2.69,0,0,0,157.07,103.66Z"/><path class="cls-1" d="M67.75,10.31a3.94,3.94,0,1,0,3.94,3.94A3.95,3.95,0,0,0,67.75,10.31Z"/><path class="cls-1" d="M88.86,153.1A2.87,2.87,0,1,0,91.73,156,2.88,2.88,0,0,0,88.86,153.1Z"/><path class="cls-1" d="M144.46,25.52a3.37,3.37,0,1,0,3.37,3.37A3.37,3.37,0,0,0,144.46,25.52Z"/><circle class="cls-1" cx="25.04" cy="53.65" r="1.92"/><path class="cls-1" d="M181,45.75A3.28,3.28,0,1,0,184.29,49,3.28,3.28,0,0,0,181,45.75Z"/><circle class="cls-1" cx="6.45" cy="65.17" r="2.09"/><path class="cls-1" d="M94.27,3.31,95.59,2a1.19,1.19,0,0,0,0-1.66,1.19,1.19,0,0,0-1.66,0L92.62,1.65,91.31.34a1.19,1.19,0,0,0-1.66,0,1.19,1.19,0,0,0,0,1.66L91,3.31,89.65,4.62a1.17,1.17,0,1,0,1.66,1.65L92.62,5l1.31,1.31a1.17,1.17,0,1,0,1.66-1.65Z"/><path class="cls-1" d="M5,43l1.31-1.32a1.16,1.16,0,0,0,0-1.65,1.18,1.18,0,0,0-1.65,0L3.31,41.3,2,40A1.19,1.19,0,0,0,.34,40a1.18,1.18,0,0,0,0,1.65L1.65,43,.34,44.27A1.17,1.17,0,0,0,2,45.92l1.31-1.31,1.31,1.31a1.17,1.17,0,0,0,1.65-1.65Z"/><path class="cls-1" d="M159.71,123.07l1.11-1.11a1,1,0,1,0-1.4-1.4l-1.11,1.11-1.11-1.11a1,1,0,0,0-1.4,0,1,1,0,0,0,0,1.4l1.11,1.11-1.11,1.11a1,1,0,0,0,1.4,1.41l1.11-1.12,1.11,1.12a1,1,0,0,0,1.4,0,1,1,0,0,0,0-1.41Z"/><path class="cls-2" d="M138.46,84.34,92.14,111.66,45.82,84.34a.25.25,0,0,1,0-.08c0-.17,2.59-2.3,6.49-5.47l.11-.09C65.22,68.31,92.14,47,92.14,47s26.93,21.27,39.72,31.66c4,3.21,6.56,5.38,6.6,5.56Z"/><path class="cls-3" d="M111.19,24.42h-50a7.77,7.77,0,0,0-7.76,7.76v75.57a7.76,7.76,0,0,0,7.76,7.76h62.63a7.76,7.76,0,0,0,7.76-7.76V44.83Z"/><path class="cls-4" d="M111.19,37.07A7.76,7.76,0,0,0,119,44.83H131.6L111.19,24.42Z"/><path class="cls-5" d="M138.47,84.34v44.44a5.66,5.66,0,0,1-5.65,5.64H51.45a5.65,5.65,0,0,1-5.63-5.64V84.34l46.33,27.31Z"/><path class="cls-2" d="M136.9,132.65l-29.81-29.81-14.94,8.81-15-8.81L47.38,132.65a5.58,5.58,0,0,0,4.07,1.77h81.37A5.59,5.59,0,0,0,136.9,132.65Z"/><circle class="cls-6" cx="92.57" cy="71.04" r="21.38"/><path class="cls-3" d="M86.31,80.1a1.82,1.82,0,0,0,2.45,0L105.9,64.71A1.84,1.84,0,0,0,103.44,62L87.52,76.27l-5.83-5.2a1.83,1.83,0,0,0-2.6.15,1.81,1.81,0,0,0-.46,1.33,1.83,1.83,0,0,0,.61,1.27Z"/></g></g></svg>