<svg xmlns="http://www.w3.org/2000/svg" viewBox="0 0 397.45 310"><defs><style>.cls-1{fill:#f1f2f6;}.cls-2{fill:#e0e2e9;}.cls-3{fill:#68bb9b;}.cls-4{fill:#5aa888;}.cls-5{fill:#eeb3b1;}.cls-6{fill:#394373;}.cls-7{fill:#f0f0f5;}.cls-8{fill:#f6b596;}.cls-9{fill:#8dccd9;}.cls-10{fill:#1c2343;}.cls-11{fill:#c76740;}.cls-12{fill:#358eb2;}.cls-13{fill:#6ec1e1;}.cls-14{fill:#ee7c6b;}.cls-15{fill:#5e4455;}.cls-16{fill:#f29975;}.cls-17{fill:#55433e;}.cls-18{opacity:0.28;}.cls-19{fill:#ee7d76;}.cls-20{fill:#e3bf49;}.cls-21{fill:#1f294e;}</style></defs><title>자산 1</title><g id="레이어_2" data-name="레이어 2"><g id="Login_Register" data-name="Login &amp; Register"><path class="cls-1" d="M118.67,267.52s-40.15-5.57-82.26,0-43,18.39-26.19,22.84c12.27,3.23,23.22,5.81,38.33,5.63s25.34,1.53,36.77,3.37S96,305.75,96,305.75a30.68,30.68,0,0,0,14.08,3.94c19.46.31,30.49-1.58,54.75-2.26s49,4.49,81.71,1.78,28.61-1.1,46.55-.42,36-4.8,47.48-12.22c16.48-10.63-15.49-20-35.1-24S250,262.24,209.34,261.7,118.67,267.52,118.67,267.52Z"/><path class="cls-2" d="M143.21,272.12c-21.9,0-32.78-1.87-39.23,4.95s17.68,13.43,31.32,13.43,17.19-1.57,29.59.91,25.88,3.51,43.18,2.89,35.91-.62,48-4.34,11.46-6.11,25.1-7.71,24.8-2.83,22.94-7.17-33.12-9.91-53.76-9.91-46.06,1.86-57.83,2.48S149,272.12,143.21,272.12Z"/><path class="cls-3" d="M268.24,237c-1.71-3.34,2.3-6.92,6-7.58s7.88-.15,10.82-2.48c3.94-3.12,3.73-9.9,8.09-12.39,3.49-2,8.12-.09,11.82-1.67,4.6-2,5.9-8.36,10.41-10.52,3.6-1.71,8.3.23,10.14,3.77s1,8.1-1.56,11.17c-2,2.4-4.93,4.08-6.17,6.94-1.94,4.48,1.12,9.91-.66,14.45-3.3,8.39-18.85,5.87-21.55,14.47-.6,1.91-.35,4-.51,6-.46,6-4.66,11.15-9.84,14.11s-11.24,4-17.2,4.41c-2.43.17-5,.22-7.17-.89a11.77,11.77,0,0,1-4.57-5c-7.15-13-10.1-29.88,11.95-34.75"/><path class="cls-4" d="M153.53,230.06c3.85-2.55,1.71-8.79-1.85-11.72s-8.34-4.91-10.08-9.18c-2.33-5.7,2-12.84-1.19-18.12-2.53-4.24-8.63-5-11.64-8.9-3.74-4.87-1.27-12.5-4.8-17.52-2.81-4-9-4.76-13.11-2.08s-5.94,8.07-5.07,12.89c.69,3.76,2.83,7.33,2.43,11.14-.62,6-7.16,9.92-8,15.86-1.54,10.95,16.62,17.62,14.33,28.44-.51,2.41-2,4.47-3.06,6.7-3.08,6.65-1.73,14.74,2,21s9.62,11,15.74,15.07c2.5,1.65,5.22,3.25,8.21,3.36,2.81.11,5.51-1.13,7.91-2.61,15.46-9.57,28.8-25.88,8.14-44.36"/><path class="cls-5" d="M254.43,243.8c5.38-2.32,10.22-6.61,14.24-10.76,10.83-11.18,17.54-25.78,21.07-40.8,3.2-13.6,3.91-27.66,3.24-41.58-.05-1.18-1.89-1.19-1.84,0,1.5,31.27-4.7,69.64-32.69,88.67a30.56,30.56,0,0,1-4.95,2.88c-1.08.47-.15,2,.93,1.59Z"/><path class="cls-5" d="M290,187s1.78-10.13,15.2-11.73C305.19,175.24,300.29,187.23,290,187Z"/><path class="cls-5" d="M285.6,202s4.08-9.44,17.51-7.87C303.11,194.08,295.55,204.6,285.6,202Z"/><path class="cls-5" d="M279.89,215.14s6.1-8.28,18.83-3.74C298.72,211.4,289,220,279.89,215.14Z"/><path class="cls-5" d="M292.06,171.25s1.74-10,14.93-11.54C307,159.71,302.18,171.5,292.06,171.25Z"/><path class="cls-5" d="M292.24,153.94s-7.52-6.76-1.85-18.78C290.39,135.16,297.82,145.5,292.24,153.94Z"/><path class="cls-5" d="M292.28,164.2s-9.94-1.83-11.39-15C280.89,149.16,292.63,154.08,292.28,164.2Z"/><path class="cls-5" d="M291.29,179.38s-9.94-1.84-11.4-15C279.89,164.33,291.63,169.26,291.29,179.38Z"/><path class="cls-5" d="M288.71,193.58s-9.79-2.52-10.31-15.8C278.4,177.78,289.76,183.51,288.71,193.58Z"/><path class="cls-5" d="M284.2,207.78s-9.79-2.53-10.31-15.8C273.89,192,285.25,197.71,284.2,207.78Z"/><rect class="cls-6" x="134.52" width="142.51" height="279.44" rx="21.15"/><rect class="cls-7" x="141.1" y="8.22" width="129.35" height="261.34" rx="14.81"/><path class="cls-6" d="M244.48,8.22h-8.41a4.68,4.68,0,0,0-4.68,4.67v3.34a4.67,4.67,0,0,1-4.67,4.67H189.21a4.68,4.68,0,0,1-4.68-4.67V12.89a4.67,4.67,0,0,0-4.67-4.67H156V5.82h88.51Z"/><path class="cls-2" d="M373,295.79c0-1.84-28.43-3.32-63.49-3.32S246,294,246,295.79s28.43,3.32,63.49,3.32S373,297.62,373,295.79Z"/><path class="cls-8" d="M316.23,160.24s6.31,9.74,7.74,5.52,2.3-6.81,2.3-6.81-1.79-2.94-2.74-2-2.28-.77-2.28-.77Z"/><path class="cls-8" d="M347.42,109.86,350,94.72c1.71-.55,3.47-1.88,2.87-3.92a3,3,0,0,0-2-1.92c-.36-.13-2.18-.66-2.31.05,0,0,1-5.46,1-5.46L331.78,74.9s-1.62,10.87-1.63,11a5.54,5.54,0,0,0-2-.53,3,3,0,0,0-2.11,1.7,3.52,3.52,0,0,0,3.1,4.7s.3,4.88,1.43,6.61,6.35,2.92,6.35,2.92l-.57,6.59Z"/><path class="cls-7" d="M390,85.5l-11.83,3c3.14,9.27,4.45,17.61,6.85,28.52a209.56,209.56,0,0,1-31.59-5.93c-6.65-1.87-15.52-3.55-18.36-4.07a1.28,1.28,0,0,0-.21-.14.89.89,0,0,0-.41,0l-.31-.06,0,.13c-5.19,1.43-34.62,15.83-34.62,15.83s-6.39,2.23-7.09,6.47c-.9,5.5,22.77,32.09,22.77,32.09l8.58-6.15-17.23-23.46c11.61-5.4,20.71-10.42,26-13.49l-5.87,41.82,31.49-1-3.33-33.82,11.44,2s25.51,5.16,30.64-2.68C399.9,120.05,390,85.5,390,85.5Z"/><path class="cls-8" d="M389.47,85.63s-1.4-9.78-1.57-10.06-.16-2-2.68-1.59c0,0-.16-3.09-1.61-3.15a13.06,13.06,0,0,0-3.07.33s-1.64-7.94-2.7-9.32-2.77,2.46-.26,12.14c0,0,1.39,6.59,1,6.83-1.13.66-2.67.54-4.81-3.12-2.27-3.88-5.1-2.56-3.7.45s3.37,6.91,4.65,8,4,.9,4,.9l.39,1.26Z"/><path class="cls-9" d="M358.14,159.12c-3.8,57.61-16.67,128.7-16.67,128.7l12.61,5.34H327.22l17.62-125.72h-6l-44.55,125.8H267.42l15.26-5.57L327.22,156Z"/><path class="cls-10" d="M351.68,89.28c1.5-3,3.25-10.28-1.3-12.31a45.69,45.69,0,0,1-6.63-3.78,11.56,11.56,0,0,0-9.45-1.7,8.71,8.71,0,0,0-1.5.56c-3.18,1.56-5.33,10-5.33,10l3.13.79s3.49,15.5,9.22,18.69l5.73,1.21,3.39.76Z"/><path class="cls-11" d="M347.52,75.9a21.47,21.47,0,0,0-.1-2.78c0-.38-.64-.38-.6,0a21.47,21.47,0,0,1,.11,2.78.3.3,0,0,0,.59,0Z"/><path class="cls-11" d="M347.52,76c.41-.25.54-.72.76-1.12a10.79,10.79,0,0,1,.92-1.39c.23-.31-.29-.6-.52-.3a10.64,10.64,0,0,0-.75,1.1c-.19.33-.38,1-.71,1.2s0,.72.3.51Z"/><path class="cls-2" d="M128.3,284.47c0-1.86-28.43-3.36-63.49-3.36s-63.49,1.5-63.49,3.36,28.43,3.37,63.49,3.37S128.3,286.33,128.3,284.47Z"/><path class="cls-10" d="M98.61,62.8a29.37,29.37,0,0,0-3.83-.46c-2.27-.21-4.34,1.26-6.06,2.76a20.15,20.15,0,0,0-4.08,5.46c-1.13,2-2.2,4.4-1.52,6.63a5.83,5.83,0,0,1,.44,1.71c0,1.85-2.57,2.55-3.36,4.21-1,2.06,1,4.83-.34,6.67-.68.91-2,1.2-2.63,2.14a4.15,4.15,0,0,0-.45,2.59.77.77,0,0,0,.16.52.73.73,0,0,0,.43.13c7.28.7,14.47-.87,21.74-.17a12.29,12.29,0,0,0,2.64.06,12.14,12.14,0,0,0,3.59-1.19c6.29-2.87,12.58-3.61,18.72-6.77a1.36,1.36,0,0,0,.66-.54,1.11,1.11,0,0,0,.07-.65,4.3,4.3,0,0,0-2.91-3.58c-1.6-.5-3.52-.06-4.86-1.07A4.56,4.56,0,0,1,115.58,78c-.25-2.45,0-5.28-1.75-7-1.38-1.34-3.61-1.48-5-2.81A17.79,17.79,0,0,1,107,65.53c-1.87-2.6-5.06-4.12-8.36-2.73"/><path class="cls-6" d="M86.46,146.83,45.92,275.1l-16,6.15H53.64L99.41,160.4a2,2,0,0,1,1.87-1.29h0a2,2,0,0,1,2,2.21L91.2,281.25h24l-16-5.29s14.91-69.73,18.23-91.55-1.49-37.24-1.49-37.24S100.36,142.24,86.46,146.83Z"/><path class="cls-12" d="M89.5,113.45a.41.41,0,0,1-.28-.09.45.45,0,0,1-.09-.63l1.59-2.12a.46.46,0,0,1,.73.55l-1.59,2.11A.45.45,0,0,1,89.5,113.45Z"/><path class="cls-13" d="M75.31,150.34l5.12-3"/><path class="cls-8" d="M97.43,97.46c-.31-3,1.21-6-3.58-7.9-6.6-2.65-8-25.42,3.91-25.47s11.34,15,11.3,19.44-4,5.6-5,7.22-.14,6.71-.14,6.71Z"/><path class="cls-8" d="M90.67,80.21a2.31,2.31,0,1,1-2.29-2.65A2.5,2.5,0,0,1,90.67,80.21Z"/><ellipse class="cls-8" cx="109.78" cy="78.17" rx="2.29" ry="2.65"/><path class="cls-10" d="M107.86,69.16a3.19,3.19,0,0,0-1.22-.21c-.13-1.56-1.15-7.43-8.88-7-5.4.27-7.84,5.86-8.61,8.12l-.77.07a28.77,28.77,0,0,0,.49,8.44s11.78-1.11,13.84-6.66c0,0,3.91,5,6.2,4.74C108.91,76.62,109.28,70.05,107.86,69.16Z"/><path class="cls-8" d="M76.75,153.1s3.21,6.78,3.4,6.94.57,1.42,2.3.55c0,0,.82,2.21,1.88,1.93a10.12,10.12,0,0,0,2.16-.94s1.29,1.72,2.24.81c1.12-1.06.06-2.24-.73-3.52,0,0-2.5-4.47-2.25-4.73.67-.73,1.82-1,4.19,1.18s4.28.71,2.59-1.16-4-4.26-5.18-4.74a5.34,5.34,0,0,0-3.1.25l-.57-.83Z"/><path class="cls-14" d="M110.75,98.53c-5.33-2.2-20.1-1.75-23.82,2.13,0,0-25.21,22.45-25.35,26.62s14.85,26.08,14.85,26.08l7.5-4.74L73.43,129,88.72,114.4l.46,4.45-3.28,26.9,16.6.62v3s17.68-3.59,20.84-4.46,5-6,5-6S116.09,100.72,110.75,98.53ZM118,140.25l-4.21.57-2.14-25.4Z"/><path class="cls-8" d="M102.5,143.17h-1.35a9.06,9.06,0,0,0-.49-1.26c-.55-.89-8-1.83-7.82-.87s1.35,1.21,4,1.7c0,0-9.76,2.36-8.84,3.14s7-1,7-1-6.6,2.15-6.13,3.62c.26.84,7-1.14,7-1.14s-6.82,2.44-5.61,3.26,8.75-1,9.47-1.28,1-1.66,1-1.66l1.84-.32Z"/><path class="cls-15" d="M96.94,59.25a10.7,10.7,0,0,0,1,3.36c.25.39.89,0,.63-.36a10.61,10.61,0,0,1-.92-3.2c-.11-.46-.81-.26-.7.2Z"/><path class="cls-15" d="M98.53,62.68c.37-.66.77-1.31,1.19-1.94.27-.39-.36-.75-.63-.37-.42.63-.82,1.28-1.19,1.94-.23.41.4.78.63.37Z"/><path class="cls-16" d="M99.94,78a16.21,16.21,0,0,0,.09,2.51c0,.43,0,1.19.31,1.51s.52.18.74.21c.8.13,1.6.22,2.41.32a2.88,2.88,0,0,1-.13-.31,7.43,7.43,0,0,1-2.28,1.49c-.22.09,0,.41.18.32a7.85,7.85,0,0,0,2.36-1.55.19.19,0,0,0-.13-.31c-.84-.11-2.54,0-3-.9A8.46,8.46,0,0,1,100.3,78c0-.24-.35-.23-.36,0Z"/><path class="cls-17" d="M103.69,80.54c.1-.83-.43-2.78.62-3.18s1.52.41,1.67,1.2l.27,1.48c0,.23.39.14.35-.09-.22-1.22-.27-3.28-2.08-3s-1.06,2.56-1.2,3.63c0,.23.34.23.37,0Z"/><path class="cls-17" d="M94.27,81c.1-.83-.43-2.78.62-3.19s1.52.42,1.67,1.21l.27,1.48c0,.23.39.13.35-.1-.22-1.21-.27-3.28-2.08-3S94,80,93.9,81c0,.23.34.23.37,0Z"/><path class="cls-16" d="M96.76,83.16c.39,3,5.53,3.64,7.42,1.8.17-.17-.09-.42-.26-.26-1.58,1.54-6.45,1.18-6.8-1.54,0-.23-.39-.24-.36,0Z"/><path class="cls-16" d="M96.68,83.67a.69.69,0,0,1,.77-.48c.23,0,.33-.31.1-.35a1.07,1.07,0,0,0-1.22.73c-.07.22.28.32.35.1Z"/><g class="cls-18"><path class="cls-19" d="M96.23,82c.16.4-.56,1.07-1.66,1.3a3,3,0,0,1-1.4,0,1,1,0,0,1-.62-.39.35.35,0,0,1,0-.35,1.11,1.11,0,0,1,.4-.37,4.71,4.71,0,0,1,1.25-.45C95.19,81.49,96.06,81.53,96.23,82Z"/></g><g class="cls-18"><path class="cls-19" d="M108.2,81.11c.16.41-.56,1.07-1.65,1.31a3,3,0,0,1-1.4,0,1.06,1.06,0,0,1-.63-.4.37.37,0,0,1,0-.35,1.13,1.13,0,0,1,.41-.36,4.27,4.27,0,0,1,1.25-.45C107.17,80.65,108,80.7,108.2,81.11Z"/></g><path class="cls-16" d="M88.22,78.84a1.15,1.15,0,0,0-1,1.36,1.32,1.32,0,0,0,1.23,1.25c.23,0,.23-.35,0-.36-1-.07-1.28-1.85-.2-1.89a.18.18,0,1,0,0-.36Z"/><path class="cls-16" d="M87.25,79.84a1.66,1.66,0,0,0,1.43.62c.23,0,.23-.38,0-.36a1.35,1.35,0,0,1-1.17-.52c-.15-.19-.41.07-.26.26Z"/><path class="cls-16" d="M109.6,79.47c.78.18,1.22-.53,1.32-1.22a1.32,1.32,0,0,0-1.16-1.56c-.23,0-.23.35,0,.37a1,1,0,0,1,.82,1c0,.47-.28,1.17-.89,1a.19.19,0,0,0-.09.36Z"/><path class="cls-16" d="M109.82,78.39a1.9,1.9,0,0,0,.62-1.17c0-.23-.31-.33-.35-.1a1.61,1.61,0,0,1-.53,1c-.18.16.08.42.26.26Z"/><rect class="cls-20" x="152.8" y="137.48" width="105.95" height="32.73" rx="3.02"/><circle class="cls-21" cx="194.48" cy="153.84" r="3"/><circle class="cls-21" cx="205.92" cy="153.84" r="3"/><path class="cls-21" d="M220.35,153.84a3,3,0,1,1-3-3A3,3,0,0,1,220.35,153.84Z"/><path class="cls-21" d="M231.78,153.84a3,3,0,1,1-3-3A3,3,0,0,1,231.78,153.84Z"/><path class="cls-21" d="M243.22,153.84a3,3,0,1,1-3-3A3,3,0,0,1,243.22,153.84Z"/><rect class="cls-21" x="162.19" y="152.35" width="16.72" height="12.7" rx="1.26"/><path class="cls-21" d="M176.33,150.92h-1.57v-2.5a4.21,4.21,0,0,0-8.42,0v2.5h-1.58v-2.5a5.79,5.79,0,1,1,11.57,0Z"/><path class="cls-20" d="M172.31,157a1.77,1.77,0,1,0-2.63,1.52l-.61,3.48h3l-.61-3.48A1.75,1.75,0,0,0,172.31,157Z"/><rect class="cls-20" x="152.8" y="90.62" width="105.95" height="32.73" rx="3.02"/><circle class="cls-21" cx="194.48" cy="106.98" r="3"/><circle class="cls-21" cx="205.92" cy="106.98" r="3"/><path class="cls-21" d="M220.35,107a3,3,0,1,1-3-3A3,3,0,0,1,220.35,107Z"/><path class="cls-21" d="M231.78,107a3,3,0,1,1-3-3A3,3,0,0,1,231.78,107Z"/><path class="cls-21" d="M243.22,107a3,3,0,1,1-3-3A3,3,0,0,1,243.22,107Z"/><path class="cls-21" d="M175.17,101.57a4.62,4.62,0,1,1-4.62-4.79A4.7,4.7,0,0,1,175.17,101.57Z"/><path class="cls-21" d="M176.44,109.79l-2.79-.9a10,10,0,0,0-6.18,0l-2.81.91a4.2,4.2,0,0,0-2.9,4v4.5h17.57v-4.5A4.19,4.19,0,0,0,176.44,109.79Z"/></g></g></svg>