<svg xmlns="http://www.w3.org/2000/svg" viewBox="0 0 396.59 310"><defs><style>.cls-1{fill:#f1f2f6;}.cls-2{fill:#e0e2e9;}.cls-3{fill:#68bb9b;}.cls-4{fill:#5aa888;}.cls-5{fill:#eeb3b1;}.cls-6{fill:#394373;}.cls-7{fill:#f0f0f5;}.cls-8{fill:#1f294e;}.cls-9{fill:#e3bf49;}.cls-10{fill:#f6b596;}.cls-11{fill:#8dccd9;}.cls-12{fill:#1c2343;}.cls-13{fill:#c76740;}</style></defs><title>veri</title><g id="레이어_2" data-name="레이어 2"><g id="Login_Register" data-name="Login &amp; Register"><path class="cls-1" d="M118.41,267.61s-40.06-5.55-82.08,0S-6.61,286,10.2,290.4c12.24,3.23,23.17,5.8,38.24,5.62s25.29,1.53,36.69,3.36,10.7,6.38,10.7,6.38a30.65,30.65,0,0,0,14,3.93c19.42.31,30.42-1.58,54.63-2.26s48.92,4.49,81.53,1.78,28.55-1.1,46.45-.42S328.4,304,339.87,296.6c16.44-10.61-15.46-20-35-23.93s-55.38-10.33-96-10.87S118.41,267.61,118.41,267.61Z"/><path class="cls-2" d="M142.9,272.2c-21.85,0-32.71-1.86-39.14,4.94S121.4,290.55,135,290.55s17.16-1.58,29.53.9,25.82,3.51,43.08,2.89,35.84-.62,47.89-4.33,11.43-6.11,25-7.69,24.75-2.83,22.89-7.16-33-9.9-53.64-9.9-45.95,1.86-57.71,2.48S148.66,272.21,142.9,272.2Z"/><path class="cls-3" d="M267.66,237.11c-1.71-3.33,2.29-6.9,6-7.56s7.86-.15,10.8-2.48c3.92-3.11,3.72-9.88,8.07-12.36,3.49-2,8.1-.09,11.8-1.66,4.59-2,5.88-8.35,10.38-10.5,3.59-1.71,8.29.22,10.12,3.75s1,8.09-1.55,11.15c-2,2.4-4.93,4.07-6.17,6.93-1.93,4.47,1.12,9.89-.66,14.42-3.28,8.37-18.8,5.85-21.5,14.43-.6,1.91-.35,4-.5,6-.47,5.94-4.65,11.12-9.82,14.08s-11.22,4-17.16,4.4c-2.43.17-5,.22-7.16-.89a11.81,11.81,0,0,1-4.56-5c-7.13-13-10.07-29.82,11.93-34.68"/><path class="cls-4" d="M153.2,230.23c3.83-2.53,1.7-8.76-1.85-11.69s-8.32-4.9-10.06-9.16c-2.32-5.68,2-12.81-1.18-18.08-2.54-4.23-8.62-5-11.62-8.88-3.74-4.86-1.27-12.48-4.79-17.48-2.81-4-9-4.75-13.08-2.08s-5.93,8.06-5.06,12.86c.69,3.76,2.82,7.32,2.42,11.12-.62,5.94-7.15,9.9-8,15.82-1.53,10.93,16.59,17.59,14.3,28.39-.51,2.4-2,4.45-3,6.68-3.08,6.63-1.73,14.7,2,21s9.6,11,15.71,15c2.49,1.65,5.2,3.24,8.19,3.35,2.81.11,5.5-1.12,7.89-2.6,15.43-9.55,28.73-25.83,8.13-44.27"/><path class="cls-5" d="M253.87,243.94c5.37-2.31,10.2-6.59,14.21-10.73,10.81-11.15,17.51-25.72,21-40.72,3.19-13.57,3.9-27.6,3.23-41.48,0-1.18-1.89-1.19-1.83,0,1.49,31.2-4.7,69.48-32.62,88.47a29.76,29.76,0,0,1-4.94,2.88c-1.08.46-.15,2,.92,1.58Z"/><path class="cls-5" d="M289.36,187.24s1.77-10.1,15.16-11.7C304.52,175.54,299.64,187.5,289.36,187.24Z"/><path class="cls-5" d="M285,202.18s4.08-9.41,17.48-7.84C302.45,194.34,294.9,204.83,285,202.18Z"/><path class="cls-5" d="M279.28,215.35s6.09-8.26,18.79-3.73C298.07,211.62,288.37,220.15,279.28,215.35Z"/><path class="cls-5" d="M291.42,171.55s1.74-9.94,14.9-11.51C306.32,160,301.52,171.8,291.42,171.55Z"/><path class="cls-5" d="M291.6,154.28s-7.5-6.75-1.84-18.74C289.76,135.54,297.17,145.86,291.6,154.28Z"/><path class="cls-5" d="M291.64,164.52s-9.92-1.83-11.37-15C280.27,149.51,292,154.43,291.64,164.52Z"/><path class="cls-5" d="M290.65,179.66s-9.92-1.83-11.37-15C279.28,164.65,291,169.56,290.65,179.66Z"/><path class="cls-5" d="M288.08,193.84s-9.77-2.52-10.29-15.77C277.79,178.07,289.13,183.79,288.08,193.84Z"/><path class="cls-5" d="M283.58,208s-9.77-2.52-10.29-15.77C273.29,192.23,284.63,198,283.58,208Z"/><rect class="cls-6" x="134.05" width="142.54" height="279.5" rx="21.15"/><rect class="cls-7" x="140.63" y="8.22" width="129.38" height="261.41" rx="14.81"/><path class="cls-6" d="M244,8.22h-8.41A4.67,4.67,0,0,0,231,12.89v3.34a4.67,4.67,0,0,1-4.67,4.68H188.75a4.67,4.67,0,0,1-4.67-4.68V12.89a4.67,4.67,0,0,0-4.68-4.67H155.51V5.82H244Z"/><path class="cls-8" d="M214.24,58a6.14,6.14,0,1,1-6.14-6.35A6.24,6.24,0,0,1,214.24,58Z"/><path class="cls-8" d="M215.92,68.94l-3.7-1.21a13.35,13.35,0,0,0-8.2,0l-3.73,1.21a5.57,5.57,0,0,0-3.85,5.29v6h23.33v-6A5.57,5.57,0,0,0,215.92,68.94Z"/><rect class="cls-9" x="155.43" y="98.28" width="99.39" height="20.51" rx="2.76"/><circle class="cls-8" cx="169.27" cy="109.72" r="1.82"/><circle class="cls-8" cx="176.21" cy="109.72" r="1.82"/><path class="cls-8" d="M185,109.72a1.82,1.82,0,1,1-1.82-1.81A1.81,1.81,0,0,1,185,109.72Z"/><path class="cls-8" d="M191.9,109.72a1.82,1.82,0,1,1-1.82-1.81A1.82,1.82,0,0,1,191.9,109.72Z"/><path class="cls-8" d="M198.83,109.72a1.82,1.82,0,1,1-1.82-1.81A1.81,1.81,0,0,1,198.83,109.72Z"/><rect class="cls-9" x="155.43" y="128.23" width="99.39" height="20.51" rx="2.76"/><circle class="cls-8" cx="169.27" cy="139.01" r="1.82"/><circle class="cls-8" cx="176.21" cy="139.01" r="1.82"/><path class="cls-8" d="M185,139a1.82,1.82,0,1,1-1.82-1.82A1.81,1.81,0,0,1,185,139Z"/><path class="cls-8" d="M191.9,139a1.82,1.82,0,1,1-1.82-1.82A1.82,1.82,0,0,1,191.9,139Z"/><path class="cls-8" d="M198.83,139a1.82,1.82,0,1,1-1.82-1.82A1.81,1.81,0,0,1,198.83,139Z"/><rect class="cls-9" x="155.43" y="157.75" width="99.39" height="20.51" rx="2.76"/><circle class="cls-8" cx="169.27" cy="168.64" r="1.82"/><circle class="cls-8" cx="176.21" cy="168.64" r="1.82"/><path class="cls-8" d="M185,168.64a1.82,1.82,0,1,1-1.82-1.82A1.81,1.81,0,0,1,185,168.64Z"/><path class="cls-8" d="M191.9,168.64a1.82,1.82,0,1,1-1.82-1.82A1.82,1.82,0,0,1,191.9,168.64Z"/><path class="cls-8" d="M198.83,168.64a1.82,1.82,0,1,1-1.82-1.82A1.81,1.81,0,0,1,198.83,168.64Z"/><rect class="cls-9" x="155.43" y="187.9" width="99.39" height="19.88" rx="2.76"/><circle class="cls-8" cx="169.27" cy="197.93" r="1.82"/><circle class="cls-8" cx="176.21" cy="197.93" r="1.82"/><path class="cls-8" d="M185,197.93a1.82,1.82,0,1,1-1.82-1.82A1.81,1.81,0,0,1,185,197.93Z"/><path class="cls-8" d="M191.9,197.93a1.82,1.82,0,1,1-1.82-1.82A1.82,1.82,0,0,1,191.9,197.93Z"/><path class="cls-8" d="M198.83,197.93a1.82,1.82,0,1,1-1.82-1.82A1.81,1.81,0,0,1,198.83,197.93Z"/><path class="cls-2" d="M372.2,295.82c0-1.83-28.36-3.31-63.35-3.31S245.5,294,245.5,295.82s28.37,3.31,63.35,3.31S372.2,297.65,372.2,295.82Z"/><path class="cls-10" d="M315.54,160.56s6.3,9.73,7.72,5.51,2.3-6.79,2.3-6.79-1.79-2.93-2.73-2-2.28-.77-2.28-.77Z"/><path class="cls-10" d="M346.66,110.29l2.6-15.1c1.71-.55,3.46-1.87,2.86-3.91a3,3,0,0,0-2-1.92c-.35-.13-2.17-.65-2.3,0l1-5.45-17.71-8.54s-1.62,10.84-1.64,11a5.43,5.43,0,0,0-1.95-.53,3,3,0,0,0-2.11,1.7,3.51,3.51,0,0,0,3.09,4.69s.3,4.86,1.43,6.59,6.34,2.92,6.34,2.92l-.58,6.57Z"/><path class="cls-7" d="M389.13,86l-11.8,3c3.12,9.25,4.43,17.57,6.83,28.46a207.18,207.18,0,0,1-31.52-5.92c-6.64-1.86-15.49-3.54-18.33-4.06a1.21,1.21,0,0,0-.2-.14,1.3,1.3,0,0,0-.41,0l-.31,0,0,.13c-5.18,1.42-34.54,15.78-34.54,15.78s-6.38,2.23-7.08,6.46c-.89,5.49,22.72,32,22.72,32l8.57-6.15-17.2-23.4c11.59-5.39,20.66-10.4,26-13.46l-5.86,41.72,31.42-1L354,125.7l11.42,2s25.46,5.16,30.57-2.67C399,120.47,389.13,86,389.13,86Z"/><path class="cls-10" d="M388.62,86.12s-1.4-9.76-1.57-10-.16-2-2.67-1.59c0,0-.16-3.09-1.61-3.15a13.27,13.27,0,0,0-3.06.34s-1.63-7.93-2.69-9.3-2.77,2.45-.27,12.11c0,0,1.39,6.57,1,6.81-1.12.66-2.66.54-4.8-3.11-2.26-3.87-5.08-2.56-3.69.45s3.36,6.89,4.64,7.95,4,.9,4,.9l.4,1.26Z"/><path class="cls-11" d="M357.35,159.45c-3.78,57.48-16.63,128.42-16.63,128.42l12.59,5.32h-26.8l17.57-125.44h-6L293.6,293.27H266.83l15.23-5.55,44.45-131.38Z"/><path class="cls-12" d="M350.91,89.76c1.5-3,3.25-10.26-1.3-12.28A46.91,46.91,0,0,1,343,73.71a11.55,11.55,0,0,0-9.43-1.7,8.31,8.31,0,0,0-1.49.56c-3.18,1.56-5.32,10-5.32,10l3.12.78s3.48,15.48,9.2,18.65l5.72,1.22,3.38.76Z"/><path class="cls-13" d="M346.77,76.41a23.24,23.24,0,0,0-.11-2.77c0-.38-.64-.39-.6,0a21.32,21.32,0,0,1,.11,2.77c0,.38.59.38.6,0Z"/><path class="cls-13" d="M346.76,76.53a2.67,2.67,0,0,0,.76-1.13,11.53,11.53,0,0,1,.92-1.39c.23-.3-.29-.6-.52-.3s-.52.72-.75,1.1-.38,1-.71,1.2,0,.72.3.52Z"/></g></g></svg>