<svg xmlns="http://www.w3.org/2000/svg" viewBox="0 0 184.29 158.84"><defs><style>.cls-1{fill:#c9e1e6;}.cls-2{fill:#e3e7f0;}.cls-3{fill:#ced3df;}.cls-4{fill:#d5dae7;}.cls-5{fill:#a1abbf;}.cls-6{fill:#f0d76a;}.cls-7{fill:#e3bf49;}.cls-8{fill:#dca341;}.cls-9{fill:#323e6a;}.cls-10{fill:#1f294e;}</style></defs><title>img-pw-reset-01</title><g id="레이어_2" data-name="레이어 2"><g id="Login_Register" data-name="Login &amp; Register"><path class="cls-1" d="M27.46,112.6A4.36,4.36,0,1,0,31.82,117,4.36,4.36,0,0,0,27.46,112.6Zm0,6.12A1.76,1.76,0,1,1,29.22,117,1.76,1.76,0,0,1,27.46,118.72Z"/><path class="cls-1" d="M144.21,130.23a4.36,4.36,0,1,0,4.35,4.36A4.36,4.36,0,0,0,144.21,130.23Zm0,6.12a1.77,1.77,0,1,1,1.76-1.76A1.76,1.76,0,0,1,144.21,136.35Z"/><path class="cls-1" d="M179.85,62.56a3.34,3.34,0,1,0,3.33,3.34A3.35,3.35,0,0,0,179.85,62.56Zm0,4.69a1.35,1.35,0,1,1,1.35-1.35A1.34,1.34,0,0,1,179.85,67.25Z"/><path class="cls-1" d="M121.11,9.2a3.53,3.53,0,1,0,3.53,3.53A3.53,3.53,0,0,0,121.11,9.2Zm0,5a1.43,1.43,0,1,1,1.43-1.43A1.43,1.43,0,0,1,121.11,14.16Z"/><path class="cls-1" d="M8.29,91.38A3.71,3.71,0,1,0,12,95.09,3.71,3.71,0,0,0,8.29,91.38Z"/><path class="cls-1" d="M157.07,103.66a2.7,2.7,0,1,0,2.7,2.69A2.69,2.69,0,0,0,157.07,103.66Z"/><path class="cls-1" d="M67.75,10.31a3.94,3.94,0,1,0,3.94,3.94A3.95,3.95,0,0,0,67.75,10.31Z"/><path class="cls-1" d="M88.86,153.1A2.87,2.87,0,1,0,91.73,156,2.88,2.88,0,0,0,88.86,153.1Z"/><path class="cls-1" d="M144.46,25.52a3.37,3.37,0,1,0,3.37,3.37A3.37,3.37,0,0,0,144.46,25.52Z"/><circle class="cls-1" cx="25.04" cy="53.65" r="1.92"/><path class="cls-1" d="M181,45.75A3.28,3.28,0,1,0,184.29,49,3.28,3.28,0,0,0,181,45.75Z"/><circle class="cls-1" cx="6.45" cy="65.17" r="2.09"/><path class="cls-1" d="M94.27,3.31,95.59,2a1.19,1.19,0,0,0,0-1.66,1.19,1.19,0,0,0-1.66,0L92.62,1.65,91.31.34a1.19,1.19,0,0,0-1.66,0,1.19,1.19,0,0,0,0,1.66L91,3.31,89.65,4.62a1.17,1.17,0,1,0,1.66,1.65L92.62,5l1.31,1.31a1.17,1.17,0,1,0,1.66-1.65Z"/><path class="cls-1" d="M5,43l1.31-1.32a1.16,1.16,0,0,0,0-1.65,1.18,1.18,0,0,0-1.65,0L3.31,41.3,2,40A1.19,1.19,0,0,0,.34,40a1.18,1.18,0,0,0,0,1.65L1.65,43,.34,44.27A1.17,1.17,0,0,0,2,45.92l1.31-1.31,1.31,1.31a1.17,1.17,0,0,0,1.65-1.65Z"/><path class="cls-1" d="M159.71,123.07l1.11-1.11a1,1,0,1,0-1.4-1.4l-1.11,1.11-1.11-1.11a1,1,0,0,0-1.4,0,1,1,0,0,0,0,1.4l1.11,1.11-1.11,1.11a1,1,0,0,0,1.4,1.41l1.11-1.12,1.11,1.12a1,1,0,0,0,1.4,0,1,1,0,0,0,0-1.41Z"/><path class="cls-2" d="M69.6,84.54V53.82A22.55,22.55,0,0,1,92.14,31.27V24.42A28.34,28.34,0,0,0,63.8,52.77V91.39H92.14V84.54Z"/><path class="cls-3" d="M92.14,24.42v6.85a22.55,22.55,0,0,1,22.55,22.55V84.54H92.14v6.85h28.35V52.77A28.35,28.35,0,0,0,92.14,24.42Z"/><path class="cls-4" d="M69.6,53.82V84.54H92.14V80H73.46V54.52A18.45,18.45,0,0,1,74.6,48.1a18,18,0,0,1,.7-1.68c.27-.54.55-1.07.87-1.59s.64-1,1-1.49a18.69,18.69,0,0,1,9.42-6.66,17.37,17.37,0,0,1,1.79-.46c.3-.07.61-.12.92-.17.62-.09,1.25-.16,1.88-.19l1,0V31.27A22.55,22.55,0,0,0,69.6,53.82Z"/><path class="cls-5" d="M94.05,35.93a18.94,18.94,0,0,1,2.76.5A18.66,18.66,0,0,1,104,40.1,17.93,17.93,0,0,1,106,42a17.85,17.85,0,0,1,3,4.46,18.63,18.63,0,0,1,1.85,8.1V80H92.14v4.56h22.55V53.82A22.55,22.55,0,0,0,92.14,31.27v4.57C92.79,35.84,93.43,35.87,94.05,35.93Z"/><path class="cls-6" d="M63.8,71.14H92.14v-5H63.8A10.31,10.31,0,0,0,53.49,76.48v5A10.32,10.32,0,0,1,63.8,71.14Z"/><path class="cls-7" d="M120.49,66.17H92.14v5h28.35A10.32,10.32,0,0,1,130.8,81.45v-5A10.31,10.31,0,0,0,120.49,66.17Z"/><path class="cls-7" d="M63.8,71.14A10.32,10.32,0,0,0,53.49,81.45v29.88h0v5h0a18.12,18.12,0,0,0,18.12,18.12H92.14V71.14Z"/><path class="cls-8" d="M120.49,71.14H92.14v63.28h20.54A18.12,18.12,0,0,0,130.8,116.3h0v-5h0V81.45A10.32,10.32,0,0,0,120.49,71.14Z"/><path class="cls-9" d="M83.9,97.46a8.23,8.23,0,0,0,4,7.07l-.84,6.5h5.08V89.21A8.24,8.24,0,0,0,83.9,97.46Z"/><path class="cls-10" d="M92.14,89.21V111h5.09l-.84-6.5a8.25,8.25,0,0,0-4.25-15.32Z"/></g></g></svg>