<svg xmlns="http://www.w3.org/2000/svg" viewBox="0 0 409.33 310"><defs><style>.cls-1{fill:#68bb9b;}.cls-2{fill:#eeb3b1;}.cls-3{fill:#f1f2f6;}.cls-4{fill:#e0e2e9;}.cls-5{fill:#5aa888;}.cls-6{fill:#394373;}.cls-7{fill:#f0f0f5;}.cls-8{fill:#1f294e;}.cls-9{fill:#e3bf49;}.cls-10{fill:#6652a0;opacity:0.25;}.cls-11{fill:#5e4455;}.cls-12{fill:#49628a;}.cls-13{fill:#ee7c6b;}.cls-14{fill:#358eb2;}.cls-15{fill:#6ec1e1;}.cls-16{fill:#f6b596;}.cls-17{fill:#b1abd4;}.cls-18{fill:#f29975;}.cls-19{fill:#55433e;}.cls-20{opacity:0.28;}.cls-21{fill:#ee7d76;}</style></defs><title>img-password-reset</title><g id="레이어_2" data-name="레이어 2"><g id="Login_Register" data-name="Login &amp; Register"><path class="cls-1" d="M273,229.39c-1.62-3.15,2.16-6.52,5.64-7.14s7.43-.15,10.2-2.34c3.7-2.93,3.51-9.33,7.61-11.67,3.29-1.87,7.65-.08,11.14-1.57,4.33-1.84,5.55-7.88,9.8-9.9,3.39-1.62,7.82.21,9.55,3.54a9.84,9.84,0,0,1-1.47,10.52c-1.87,2.26-4.65,3.84-5.81,6.54-1.83,4.22,1,9.33-.63,13.61-3.1,7.9-17.75,5.52-20.29,13.62-.57,1.8-.33,3.75-.48,5.63-.43,5.61-4.38,10.5-9.26,13.29s-10.59,3.76-16.2,4.16c-2.29.16-4.71.2-6.75-.85a11,11,0,0,1-4.3-4.72C255,249.89,252.23,234,273,229.39"/><path class="cls-2" d="M254.3,245c5.06-2.18,9.62-6.22,13.41-10.13,10.2-10.52,16.52-24.27,19.84-38.42,3-12.81,3.68-26,3.06-39.16-.06-1.11-1.79-1.12-1.74,0,1.42,29.45-4.43,65.58-30.78,83.51a29,29,0,0,1-4.67,2.71c-1,.44-.14,1.93.88,1.49Z"/><path class="cls-2" d="M287.79,191.46s1.67-9.54,14.31-11.05C302.1,180.41,297.49,191.7,287.79,191.46Z"/><path class="cls-2" d="M283.65,205.56s3.85-8.89,16.49-7.4C300.14,198.16,293,208.06,283.65,205.56Z"/><path class="cls-2" d="M278.28,218s5.74-7.8,17.73-3.52C296,214.47,286.86,222.52,278.28,218Z"/><path class="cls-2" d="M289.73,176.65s1.64-9.38,14.07-10.86C303.8,165.79,299.27,176.88,289.73,176.65Z"/><path class="cls-2" d="M289.9,160.35s-7.07-6.37-1.73-17.68C288.17,142.67,295.16,152.4,289.9,160.35Z"/><path class="cls-2" d="M289.94,170s-9.36-1.73-10.73-14.17C279.21,155.85,290.27,160.49,289.94,170Z"/><path class="cls-2" d="M289,184.3s-9.36-1.72-10.73-14.16C278.28,170.14,289.33,174.77,289,184.3Z"/><path class="cls-2" d="M286.58,197.69s-9.22-2.38-9.71-14.89C276.87,182.8,287.57,188.2,286.58,197.69Z"/><path class="cls-2" d="M282.33,211.05s-9.22-2.38-9.71-14.88C272.62,196.17,283.32,201.57,282.33,211.05Z"/><path class="cls-3" d="M140.72,256.12s-47.61-7.07-97.54,0-51,23.33-31.06,29c14.55,4.11,27.54,7.38,45.45,7.15s30.05,1.94,43.6,4.27,12.72,8.11,12.72,8.11a34.83,34.83,0,0,0,16.69,5c23.08.39,36.16-2,64.93-2.87s58.14,5.7,96.9,2.25,33.92-1.39,55.2-.53,42.68-6.09,56.3-15.49c19.54-13.49-18.37-25.4-41.62-30.42s-65.82-13.14-114-13.82S140.72,256.12,140.72,256.12Z"/><path class="cls-4" d="M121.9,265.43c-30.41,0-45.53-2.59-54.48,6.89S92,291,110.92,291s23.88-2.19,41.1,1.25,35.95,4.89,60,4,49.89-.86,66.67-6,15.92-8.5,34.86-10.71,34.45-3.93,31.86-10-46-13.78-74.67-13.78-64,2.58-80.34,3.44S129.93,265.45,121.9,265.43Z"/><path class="cls-5" d="M146.39,211.76c3.63-2.39,1.61-8.27-1.74-11s-7.85-4.63-9.49-8.64C133,186.72,137,180,134,175c-2.39-4-8.13-4.69-11-8.38-3.52-4.58-1.19-11.77-4.51-16.5-2.65-3.77-8.49-4.48-12.35-2s-5.6,7.6-4.77,12.14c.64,3.54,2.66,6.91,2.28,10.49-.58,5.61-6.74,9.35-7.53,14.93-1.44,10.32,15.66,16.6,13.51,26.79-.48,2.27-1.91,4.21-2.89,6.31-2.9,6.26-1.62,13.88,1.91,19.8s9.07,10.4,14.83,14.2c2.35,1.55,4.91,3.06,7.73,3.16a13.5,13.5,0,0,0,7.44-2.46c14.56-9,27.12-24.37,7.67-41.78"/><rect class="cls-6" x="138.54" y="0.05" width="134.53" height="263.79" rx="21.15"/><rect class="cls-7" x="144.75" y="7.81" width="122.11" height="246.71" rx="14.81"/><path class="cls-6" d="M242.34,7.81H234.4A4.41,4.41,0,0,0,230,12.22v3.15a4.42,4.42,0,0,1-4.41,4.42H190.16a4.42,4.42,0,0,1-4.41-4.42V12.22a4.41,4.41,0,0,0-4.41-4.41H158.79V5.55h83.55Z"/><rect class="cls-8" x="194.34" y="72.66" width="22.92" height="17.4" rx="1.26"/><path class="cls-8" d="M213.73,70.69h-2.16V67.27a5.77,5.77,0,1,0-11.53,0v3.42h-2.17V67.27a7.93,7.93,0,1,1,15.86,0Z"/><path class="cls-7" d="M208.22,79.06a2.42,2.42,0,1,0-3.61,2.1l-.84,4.76h4.06L207,81.16A2.43,2.43,0,0,0,208.22,79.06Z"/><rect class="cls-9" x="155.91" y="117.4" width="99.78" height="30.82" rx="3.02"/><circle class="cls-8" cx="184.27" cy="132.81" r="2.82"/><circle class="cls-8" cx="195.03" cy="132.81" r="2.82"/><path class="cls-8" d="M208.62,132.81A2.82,2.82,0,1,1,205.8,130,2.82,2.82,0,0,1,208.62,132.81Z"/><path class="cls-8" d="M219.39,132.81a2.82,2.82,0,1,1-2.82-2.82A2.82,2.82,0,0,1,219.39,132.81Z"/><path class="cls-8" d="M230.16,132.81a2.82,2.82,0,1,1-2.82-2.82A2.82,2.82,0,0,1,230.16,132.81Z"/><rect class="cls-9" x="155.91" y="155.15" width="99.78" height="30.82" rx="3.02"/><circle class="cls-8" cx="184.27" cy="170.56" r="2.82"/><circle class="cls-8" cx="195.03" cy="170.56" r="2.82"/><path class="cls-8" d="M208.62,170.56a2.82,2.82,0,1,1-2.82-2.83A2.82,2.82,0,0,1,208.62,170.56Z"/><path class="cls-8" d="M219.39,170.56a2.82,2.82,0,1,1-2.82-2.83A2.82,2.82,0,0,1,219.39,170.56Z"/><path class="cls-8" d="M230.16,170.56a2.82,2.82,0,1,1-2.82-2.83A2.82,2.82,0,0,1,230.16,170.56Z"/><path class="cls-10" d="M162.76,276.82c0-1.43-35.07-2.59-78.32-2.59s-78.31,1.16-78.31,2.59,35.06,2.59,78.31,2.59S162.76,278.25,162.76,276.82Z"/><path class="cls-11" d="M111.39,5a36.34,36.34,0,0,0-4.72-.57c-2.81-.26-5.36,1.56-7.48,3.41a24.54,24.54,0,0,0-5,6.73c-1.4,2.51-2.71,5.42-1.88,8.17a7.38,7.38,0,0,1,.55,2.12c0,2.28-3.17,3.14-4.15,5.19-1.22,2.54,1.26,6-.42,8.22-.84,1.13-2.45,1.48-3.25,2.64a5.2,5.2,0,0,0-.54,3.2.94.94,0,0,0,.19.64,1,1,0,0,0,.53.17c9,.86,17.85-1.08,26.82-.22a14.82,14.82,0,0,0,3.26.08,15,15,0,0,0,4.42-1.48c7.75-3.53,15.52-4.45,23.09-8.35a1.68,1.68,0,0,0,.82-.66,1.58,1.58,0,0,0,.09-.81,5.3,5.3,0,0,0-3.6-4.4c-2-.62-4.34-.08-6-1.33a5.57,5.57,0,0,1-1.77-4c-.32-3,0-6.51-2.16-8.61-1.71-1.65-4.45-1.83-6.17-3.47a20.9,20.9,0,0,1-2.29-3.33C119.4,5.1,115.46,3.24,111.39,5"/><path class="cls-12" d="M96.4,108.6l-50,158.22-19.68,7.59h29.2l56.45-149.07a2.47,2.47,0,0,1,2.31-1.59h0a2.47,2.47,0,0,1,2.45,2.72L102.25,274.41h29.56l-19.74-6.52s18.39-86,22.49-112.94S132.72,109,132.72,109,113.55,102.94,96.4,108.6Z"/><path class="cls-13" d="M97,51.65c4.59-4.79,22.8-5.34,29.39-2.64s18.7,37.69,18.7,37.69l-12,4.73-7.48-29.24L102.11,59Z"/><path class="cls-13" d="M127.78,66.48a38.89,38.89,0,0,0,2.49-8.58c.44-3.74-4.65-7.39-4.65-7.39L98.05,57.65l1.71,16.43-4,33.19,35,1.3-3.52-41.95"/><path class="cls-14" d="M100.15,67.43a.6.6,0,0,1-.34-.11.56.56,0,0,1-.11-.79l2-2.61a.56.56,0,0,1,.89.67l-2,2.61A.56.56,0,0,1,100.15,67.43Z"/><path class="cls-15" d="M82.64,112.92,89,109.24"/><path class="cls-16" d="M109.94,47.7c-.38-3.67,1.49-7.38-4.42-9.75-8.15-3.26-9.89-31.35,4.82-31.41s14,18.48,13.93,24-4.9,6.91-6.11,8.9S118,47.7,118,47.7Z"/><path class="cls-16" d="M101.59,26.42a2.86,2.86,0,1,1-5.65,0,2.85,2.85,0,1,1,5.65,0Z"/><ellipse class="cls-16" cx="125.16" cy="23.9" rx="2.82" ry="3.27"/><path class="cls-17" d="M186.08,83.37l-4.36-11.05L58.36,120.74a26.13,26.13,0,1,0,5.12,15.53,25.57,25.57,0,0,0-.2-3.17l93.94-38,5.16,11.35,11.46-5.25-4-9,3.71-2,4.37,8.69,8.19-4.38-4.54-9.26ZM37.34,153.3a17,17,0,1,1,17-17A17,17,0,0,1,37.34,153.3Z"/><path class="cls-13" d="M97,51.65S65.88,79.34,65.71,84.48,84,116.66,84,116.66l9.25-5.85-13-24.24L101.4,66.48s.69,4.67,2.37,5.94l.94-18.48Z"/><path class="cls-11" d="M121.32,13c-4,.2-22,2-22,2s2.62-10.76,11-11.18C121.32,3.29,121.32,13,121.32,13Z"/><path class="cls-11" d="M99.38,24.36S113.9,23,116.45,16.14c0,0,4.82,6.17,7.64,5.86,0,0,.46-8.11-1.29-9.21s-24,1.17-24,1.17A35.3,35.3,0,0,0,99.38,24.36Z"/><path class="cls-16" d="M84.42,116.33s4,8.36,4.2,8.56.7,1.75,2.84.68c0,0,1,2.73,2.32,2.38a12.58,12.58,0,0,0,2.65-1.16s1.6,2.13,2.78,1c1.38-1.32.07-2.77-.91-4.35,0,0-3.08-5.51-2.77-5.84.82-.9,2.24-1.22,5.16,1.46,3.11,2.84,5.28.88,3.2-1.43s-4.94-5.25-6.38-5.84-3.83.3-3.83.3l-.71-1Z"/><path class="cls-13" d="M148,98.79s-2.23,6.33-6.12,7.39-25.7,5.5-25.7,5.5v-8.63Z"/><path class="cls-16" d="M116.19,104.08h-1.66a12.48,12.48,0,0,0-.61-1.55c-.69-1.1-9.82-2.26-9.65-1.07s1.67,1.49,4.89,2.09c0,0-12,2.92-10.91,3.87s8.64-1.24,8.64-1.24-8.15,2.66-7.57,4.46c.33,1,8.59-1.4,8.59-1.4s-8.41,3-6.92,4,10.79-1.27,11.69-1.59,1.24-2.05,1.24-2.05l2.27-.39Z"/><path class="cls-11" d="M109.33.56c.32,1.33.45,3,1.22,4.16.31.48,1.09,0,.78-.46-.71-1.07-.84-2.71-1.13-3.94-.14-.56-1-.32-.87.24Z"/><path class="cls-11" d="M111.29,4.8c.46-.82.95-1.62,1.47-2.39.33-.49-.45-.94-.77-.46-.53.78-1,1.58-1.48,2.39a.45.45,0,0,0,.78.46Z"/><path class="cls-18" d="M113,23.73a21.37,21.37,0,0,0,.11,3.1c.06.52,0,1.47.38,1.87.21.23.65.21.91.25,1,.16,2,.27,3,.4l-.15-.38a9.19,9.19,0,0,1-2.82,1.83c-.27.12,0,.51.23.39a9.2,9.2,0,0,0,2.9-1.91c.16-.14,0-.36-.16-.38-1-.14-3.13,0-3.67-1.11s-.29-3-.25-4.06c0-.29-.44-.29-.45,0Z"/><path class="cls-19" d="M117.65,26.83c.13-1-.52-3.43.77-3.93s1.88.52,2.06,1.49l.33,1.82c0,.29.49.17.44-.12-.28-1.49-.34-4-2.57-3.74-2.07.29-1.31,3.16-1.48,4.48,0,.29.42.28.45,0Z"/><path class="cls-19" d="M106,27.44c.13-1-.52-3.43.77-3.92s1.88.51,2.06,1.48l.33,1.83c0,.28.49.16.44-.12-.27-1.49-.34-4.05-2.56-3.74s-1.32,3.15-1.49,4.47c0,.29.42.29.45,0Z"/><path class="cls-18" d="M109.1,30.05c.49,3.75,6.83,4.5,9.16,2.23.21-.2-.11-.52-.32-.32-1.94,1.9-8,1.46-8.39-1.91,0-.28-.49-.28-.45,0Z"/><path class="cls-18" d="M109,30.68a.86.86,0,0,1,.95-.58c.28,0,.4-.39.12-.44a1.32,1.32,0,0,0-1.5.9c-.09.28.34.4.43.12Z"/><g class="cls-20"><path class="cls-21" d="M108.45,28.56c.2.5-.69,1.32-2,1.61a3.72,3.72,0,0,1-1.73,0,1.32,1.32,0,0,1-.77-.5.43.43,0,0,1,0-.43,1.31,1.31,0,0,1,.5-.45,5.36,5.36,0,0,1,1.54-.55C107.17,28,108.25,28.05,108.45,28.56Z"/></g><g class="cls-20"><path class="cls-21" d="M123.22,27.53c.2.5-.69,1.32-2,1.61a3.67,3.67,0,0,1-1.72,0,1.31,1.31,0,0,1-.78-.5.45.45,0,0,1,0-.43,1.39,1.39,0,0,1,.5-.45,5.36,5.36,0,0,1,1.54-.55C121.94,27,123,27,123.22,27.53Z"/></g><path class="cls-18" d="M98.58,24.73a1.42,1.42,0,0,0-1.28,1.68A1.63,1.63,0,0,0,98.82,28c.29,0,.28-.43,0-.45-1.19-.08-1.57-2.27-.24-2.32.29,0,.29-.46,0-.45Z"/><path class="cls-18" d="M97.37,26a2,2,0,0,0,1.77.77c.28,0,.29-.46,0-.45a1.66,1.66,0,0,1-1.45-.64c-.18-.23-.49.09-.32.32Z"/><path class="cls-18" d="M124.94,25.5c1,.24,1.51-.65,1.64-1.49a1.64,1.64,0,0,0-1.43-1.93c-.29,0-.29.43,0,.45a1.18,1.18,0,0,1,1,1.28c-.05.57-.34,1.44-1.09,1.26-.28-.07-.4.37-.12.43Z"/><path class="cls-18" d="M125.21,24.18a2.37,2.37,0,0,0,.78-1.45c0-.28-.4-.4-.44-.12a2,2,0,0,1-.66,1.25c-.21.19.11.51.32.32Z"/></g></g></svg>