<svg xmlns="http://www.w3.org/2000/svg" viewBox="0 0 25.24 22"><defs><style>.cls-1{fill:#ff664d;}.cls-2{fill:#c45337;}.cls-3{fill:#1f1613;}</style></defs><title>org_nolower_selected</title><g id="Layer_2" data-name="Layer 2"><g id="Layer_1-2" data-name="Layer 1"><path class="cls-1" d="M.89,19.27A1.61,1.61,0,0,0,2.5,20.89H22.73a1.61,1.61,0,0,0,1.62-1.62V10.35a1.61,1.61,0,0,0-1.62-1.62H2.5A1.61,1.61,0,0,0,.89,10.35Z"/><path class="cls-2" d="M24.35,8.73V5.34a1.62,1.62,0,0,0-1.62-1.62H13.48A1.61,1.61,0,0,1,12.14,3l-.66-1a1.61,1.61,0,0,0-1.35-.72H2.5A1.62,1.62,0,0,0,.89,2.91V8.73Z"/><path class="cls-3" d="M22.73,2.43H13.48a.73.73,0,0,1-.61-.33l-.65-1A2.51,2.51,0,0,0,10.14,0H2.5A2.55,2.55,0,0,0,0,2.7v17A2.48,2.48,0,0,0,2.5,22H22.73a2.52,2.52,0,0,0,2.51-2.5V5.12A2.55,2.55,0,0,0,22.73,2.43Zm-21,.07a.73.73,0,0,1,.73-.73h7.64a.7.7,0,0,1,.6.33l.66,1A2.48,2.48,0,0,0,13.48,4.2h9.25a.73.73,0,0,1,.73.73V8.15A2.48,2.48,0,0,0,22.73,8H2.5a2.58,2.58,0,0,0-.73.11Zm21,17.73H2.5a.73.73,0,0,1-.73-.73v-9a.73.73,0,0,1,.73-.73H22.73a.73.73,0,0,1,.73.73v9A.73.73,0,0,1,22.73,20.23Z"/></g></g></svg>