<svg xmlns="http://www.w3.org/2000/svg" viewBox="0 0 25.24 22"><defs><style>.cls-1{fill:#e2e7f2;}.cls-2{fill:#a6b0c7;}</style></defs><title>org_nolower_normal</title><g id="Layer_2" data-name="Layer 2"><g id="Layer_1-2" data-name="Layer 1"><path class="cls-1" d="M24.23,20.23V4.71a1.62,1.62,0,0,0-1.62-1.62H13.36A1.63,1.63,0,0,1,12,2.37l-.65-1A1.63,1.63,0,0,0,10,.66H2.38A1.62,1.62,0,0,0,.76,2.28v18Z"/><path class="cls-2" d="M22.73,2.43H13.48a.73.73,0,0,1-.61-.33l-.65-1A2.51,2.51,0,0,0,10.14,0H2.5A2.55,2.55,0,0,0,0,2.7v17A2.48,2.48,0,0,0,2.5,22H22.73a2.52,2.52,0,0,0,2.51-2.5V5.12A2.55,2.55,0,0,0,22.73,2.43Zm0,17.8H2.5a.73.73,0,0,1-.73-.73V2.5a.73.73,0,0,1,.73-.73h7.64a.7.7,0,0,1,.6.33l.66,1A2.48,2.48,0,0,0,13.48,4.2h9.25a.73.73,0,0,1,.73.73V19.5A.73.73,0,0,1,22.73,20.23Z"/></g></g></svg>