<svg xmlns="http://www.w3.org/2000/svg" viewBox="0 0 21.6 22"><defs><style>.cls-1{fill:#a6b0c7;}</style></defs><title>org_addteam</title><g id="Layer_2" data-name="Layer 2"><g id="Layer_1-2" data-name="Layer 1"><path class="cls-1" d="M19.46,2.08H11.54A.64.64,0,0,1,11,1.8L10.46,1A2.15,2.15,0,0,0,8.68,0H2.14A2.18,2.18,0,0,0,0,2.31V16.85a2.12,2.12,0,0,0,2.14,2h9.33A5.28,5.28,0,0,0,16.32,22a5.17,5.17,0,0,0,2-.41A5.26,5.26,0,0,0,21.6,16.7h0V4.39A2.18,2.18,0,0,0,19.46,2.08ZM1.52,2.14a.62.62,0,0,1,.62-.62H8.68a.63.63,0,0,1,.52.27l.56.85a2.12,2.12,0,0,0,1.78.95h7.92a.63.63,0,0,1,.63.63V7a1.89,1.89,0,0,0-.63-.1H2.14a2.17,2.17,0,0,0-.62.1ZM19.13,17.31H17v2.11a.66.66,0,1,1-1.32,0V17.31H13.58a.66.66,0,1,1,0-1.32h2.11V13.87a.66.66,0,1,1,1.32,0V16h2.12a.66.66,0,1,1,0,1.32ZM20,12.93a3,3,0,0,0-.32-.3l0,0h0a3.32,3.32,0,0,0-.32-.24l0,0-.06,0-.37-.22-.07,0h0l-.35-.17h0l-.06,0a4.09,4.09,0,0,0-.42-.16l-.07,0h0l-.42-.11h0l-.46-.07h-.11l-.48,0A5.26,5.26,0,0,0,11,16.65c0,.2,0,.41,0,.61,0,0,0,0,0,.06H2.14a.63.63,0,0,1-.62-.63V9a.63.63,0,0,1,.62-.63H19.46a.63.63,0,0,1,.63.62v4Z"/></g></g></svg>