<svg xmlns="http://www.w3.org/2000/svg" viewBox="0 0 20.17 22"><defs><style>.cls-1{fill:#1f1613;}</style></defs><title>org_deleteteam_on</title><g id="Layer_2" data-name="Layer 2"><g id="Layer_1-2" data-name="Layer 1"><path class="cls-1" d="M20,3.8a.44.44,0,0,0-.33-.13H15.28l-1-2.4a2,2,0,0,0-.77-.9A2,2,0,0,0,12.38,0H7.79A2,2,0,0,0,6.66.37a2,2,0,0,0-.77.9l-1,2.4H.46a.42.42,0,0,0-.33.13A.41.41,0,0,0,0,4.12V5a.42.42,0,0,0,.13.33.42.42,0,0,0,.33.13H1.83V19.14a3.12,3.12,0,0,0,.68,2A2,2,0,0,0,4.12,22H16a2,2,0,0,0,1.62-.87,3.22,3.22,0,0,0,.67-2.05V5.5h1.38A.44.44,0,0,0,20,5.37.45.45,0,0,0,20.17,5V4.12A.44.44,0,0,0,20,3.8ZM7.58,2a.36.36,0,0,1,.24-.16h4.54A.36.36,0,0,1,12.6,2l.69,1.68H6.88ZM16.5,19.08a1.57,1.57,0,0,1-.1.58,1.43,1.43,0,0,1-.21.38c-.07.09-.12.13-.15.13H4.13s-.08,0-.16-.13a1.2,1.2,0,0,1-.2-.38,1.57,1.57,0,0,1-.1-.58V5.5H16.5V19.08Z"/><path class="cls-1" d="M6,17.42h.92A.44.44,0,0,0,7.33,17V8.71a.42.42,0,0,0-.13-.33.41.41,0,0,0-.32-.13H6a.44.44,0,0,0-.46.46V17a.44.44,0,0,0,.13.33A.45.45,0,0,0,6,17.42Z"/><path class="cls-1" d="M9.63,17.42h.91a.45.45,0,0,0,.33-.13A.44.44,0,0,0,11,17V8.71a.44.44,0,0,0-.46-.46H9.63a.44.44,0,0,0-.46.46V17a.44.44,0,0,0,.13.33A.45.45,0,0,0,9.63,17.42Z"/><path class="cls-1" d="M13.29,17.42h.92a.44.44,0,0,0,.46-.46V8.71a.45.45,0,0,0-.13-.33.44.44,0,0,0-.33-.13h-.92a.44.44,0,0,0-.33.13.45.45,0,0,0-.13.33V17a.44.44,0,0,0,.46.46Z"/></g></g></svg>