<svg xmlns="http://www.w3.org/2000/svg" viewBox="0 0 18.6 20"><defs><style>.cls-1{fill:#1f1613;}</style></defs><title>org_cineroom_on</title><g id="Layer_2" data-name="Layer 2"><g id="Layer_1-2" data-name="Layer 1"><path class="cls-1" d="M16.54,0H2.06A2.1,2.1,0,0,0,0,2.22V18.1A2,2,0,0,0,2.06,20H16.54a2,2,0,0,0,2.06-1.9V2.22A2.1,2.1,0,0,0,16.54,0ZM14.87,1.46h1.67a.6.6,0,0,1,.6.6V4.62H14.87Zm0,4.62h2.27V9.27H14.87ZM3.73,18.54H2.06a.6.6,0,0,1-.6-.6V15.38H3.73Zm0-4.62H1.46V10.73H3.73Zm0-4.65H1.46V6.08H3.73Zm0-4.65H1.46V2.06a.6.6,0,0,1,.6-.6H3.73Zm9.68,9.3v4.62H5.18V10.73h8.23Zm0-9.3V9.27H5.18V1.46h8.23Zm3.73,13.32a.6.6,0,0,1-.6.6H14.87V15.38h2.27Zm0-4H14.87V10.73h2.27Z"/></g></g></svg>