<svg xmlns="http://www.w3.org/2000/svg" viewBox="0 0 20 20"><defs><style>.cls-1{fill:#a6b0c7;}</style></defs><title>icon_ttl_manager</title><g id="Layer_2" data-name="Layer 2"><g id="Layer_1-2" data-name="Layer 1"><path class="cls-1" d="M10,0A10,10,0,1,0,20,10,10,10,0,0,0,10,0Zm0,18.44A8.44,8.44,0,1,1,18.44,10,8.44,8.44,0,0,1,10,18.44Z"/><path class="cls-1" d="M12.73,12c-.62-.11-1.48-.71-1.48-1v-.66a8.48,8.48,0,0,1,.48-1.14s.1,0,.18-.09a1.59,1.59,0,0,0,.22-.63c.06-.21-.2-.22-.2-.22a5.67,5.67,0,0,0,0-1.81A2.27,2.27,0,0,0,10,5,2.28,2.28,0,0,0,8.05,6.43a5.55,5.55,0,0,0,0,1.81s-.25,0-.19.22a1.81,1.81,0,0,0,.23.63c.09.1.14.05.15.09a8.48,8.48,0,0,1,.48,1.14V11c0,.27-.86.87-1.48,1-.8.14-1.2.69-1,2.08.09.69,1.92,1,3.72,1s3.66-.27,3.75-1C13.92,12.65,13.53,12.1,12.73,12Z"/></g></g></svg>